<svg width="351" height="78" viewBox="0 0 351 78" fill="none" xmlns="http://www.w3.org/2000/svg">
<path fill-rule="evenodd" clip-rule="evenodd" d="M12.8186 19.503C18.7038 11.5869 28.128 6.45833 38.75 6.45833C49.4345 6.45833 58.9069 11.6474 64.7848 19.6429C64.5341 19.9002 64.3062 20.1668 64.1005 20.4331C63.0235 21.8274 62.2139 23.6234 61.5643 25.4472C60.2578 29.1153 59.2607 33.9066 58.338 38.3933L58.255 38.7967C57.3345 43.2751 56.4783 47.4401 55.4435 50.5319C54.9786 51.9212 54.5373 52.9025 54.1468 53.5318C53.7388 52.8981 53.2757 51.904 52.7853 50.4951C51.678 47.3144 50.7478 42.9882 49.7606 38.3689L49.7283 38.2176L49.7283 38.2175C48.7801 33.7805 47.7741 29.0727 46.5196 25.4691C45.8894 23.6589 45.1161 21.8809 44.1048 20.4995C43.1122 19.1438 41.46 17.6138 39.0436 17.6138C36.6423 17.6138 34.9825 19.1272 33.9756 20.4677C32.9447 21.8401 32.141 23.6108 31.4789 25.4219C30.1456 29.069 29.0555 33.8397 28.041 38.3325L27.9362 38.7967L27.9362 38.7967C26.9316 43.2473 25.9925 47.4082 24.9266 50.5061C24.5195 51.689 24.1355 52.5885 23.7879 53.2315C23.4482 52.5915 23.0738 51.6983 22.6779 50.5245C21.6552 47.4932 20.7594 43.4488 19.7971 39.1048L19.6287 38.3446C18.6317 33.849 17.5501 29.0697 16.1979 25.4112C15.5259 23.5933 14.7041 21.8138 13.6406 20.4349C13.3998 20.1228 13.1261 19.806 12.8186 19.503ZM9.25669 25.5813C9.53701 26.1348 9.83348 26.8208 10.1401 27.6503C11.3106 30.817 12.3023 35.1381 13.3235 39.7429L13.5222 40.6401C14.4521 44.8418 15.4192 49.2124 16.5584 52.589C17.1643 54.3849 17.896 56.1442 18.8371 57.5113C19.727 58.8041 21.3235 60.4737 23.7784 60.4737C26.2262 60.4737 27.8265 58.8124 28.7225 57.5248C29.6716 56.1608 30.4153 54.4041 31.0335 52.6074C32.2185 49.1635 33.2274 44.6904 34.193 40.4096L34.1931 40.4093L34.3407 39.755C35.3811 35.1474 36.3827 30.8177 37.5446 27.6395C38.0829 26.167 38.5869 25.1412 39.0256 24.5048C39.4415 25.1357 39.9165 26.1452 40.4203 27.5924C41.5275 30.7731 42.4577 35.0993 43.4449 39.7186L43.4772 39.8699L43.4772 39.8699C44.4254 44.3069 45.4315 49.0148 46.686 52.6184C47.3161 54.4285 48.0894 56.2066 49.1008 57.588C50.0933 58.9437 51.7456 60.4737 54.162 60.4737C56.5906 60.4737 58.2368 58.93 59.2177 57.5623C60.2133 56.174 60.9626 54.3904 61.568 52.5816C62.73 49.1093 63.6556 44.6033 64.536 40.3167L64.536 40.3166L64.6639 39.6942C65.6127 35.0805 66.5237 30.7714 67.6483 27.6142C67.8929 26.9274 68.132 26.3418 68.362 25.8499C70.0856 29.801 71.0417 34.1639 71.0417 38.75C71.0417 56.5842 56.5842 71.0417 38.75 71.0417C20.9158 71.0417 6.45833 56.5842 6.45833 38.75C6.45833 34.0597 7.45831 29.6029 9.25669 25.5813ZM38.75 0C17.349 0 0 17.349 0 38.75C0 60.151 17.349 77.5 38.75 77.5C60.151 77.5 77.5 60.151 77.5 38.75C77.5 17.349 60.151 0 38.75 0ZM39.4882 23.9642C39.4883 23.965 39.4807 23.971 39.4656 23.9798C39.4806 23.9678 39.4882 23.9634 39.4882 23.9642ZM38.5956 23.9686C38.5806 23.9594 38.5732 23.9531 38.5732 23.9523C38.5733 23.9515 38.5807 23.9561 38.5956 23.9686ZM53.6704 54.1453C53.6703 54.1445 53.6775 54.1383 53.692 54.1288C53.6776 54.1414 53.6704 54.1461 53.6704 54.1453ZM54.6099 54.1188C54.6249 54.1281 54.6323 54.1344 54.6323 54.1352C54.6323 54.136 54.6248 54.1314 54.6099 54.1188ZM23.1166 54.2028C23.1165 54.2017 23.1258 54.1929 23.1444 54.1797C23.126 54.1972 23.1167 54.2038 23.1166 54.2028ZM24.4245 54.1859C24.4431 54.1993 24.4522 54.2081 24.4522 54.2092C24.4521 54.2103 24.4428 54.2036 24.4245 54.1859Z" fill="#FCBB01"/>
<path d="M98.8966 61.6908L89.5 29.5478H97.7302L103.303 52.6829L109.784 29.5478H118.986L125.466 52.6829L131.104 29.5478H139.335L129.873 61.6908H121.254L114.385 37.6483L107.516 61.6908H98.8966Z" fill="#242A31"/>
<path d="M151.412 62.4684C148.647 62.4684 146.379 62.0364 144.607 61.1723C142.836 60.2651 141.518 59.077 140.654 57.6081C139.79 56.1392 139.358 54.5191 139.358 52.7477C139.358 49.7668 140.525 47.3474 142.858 45.4897C145.191 43.6319 148.69 42.7031 153.356 42.7031H161.521V41.9254C161.521 39.7221 160.895 38.102 159.642 37.0651C158.389 36.0282 156.834 35.5098 154.976 35.5098C153.291 35.5098 151.822 35.9202 150.569 36.7411C149.317 37.5187 148.539 38.6852 148.237 40.2405H140.136C140.352 37.9076 141.13 35.877 142.469 34.1489C143.851 32.4208 145.623 31.1031 147.783 30.1958C149.943 29.2454 152.362 28.7701 155.041 28.7701C159.62 28.7701 163.228 29.915 165.863 32.2048C168.499 34.4945 169.816 37.7347 169.816 41.9254V61.6908H162.753L161.975 56.5064C161.025 58.2345 159.685 59.6602 157.957 60.7835C156.272 61.9068 154.091 62.4684 151.412 62.4684ZM153.291 55.988C155.667 55.988 157.504 55.2103 158.8 53.655C160.139 52.0997 160.981 50.1772 161.327 47.8874H154.263C152.06 47.8874 150.483 48.2979 149.533 49.1187C148.582 49.8964 148.107 50.8684 148.107 52.0349C148.107 53.2878 148.582 54.2598 149.533 54.9511C150.483 55.6423 151.736 55.988 153.291 55.988Z" fill="#242A31"/>
<path d="M182.874 61.6908L171.08 29.5478H179.764L187.929 53.8494L196.095 29.5478H204.778L192.919 61.6908H182.874Z" fill="#242A31"/>
<path d="M221.454 62.4684C218.214 62.4684 215.341 61.7772 212.835 60.3947C210.329 59.0122 208.363 57.068 206.938 54.5623C205.512 52.0565 204.799 49.1619 204.799 45.8785C204.799 42.5519 205.49 39.5925 206.873 37.0003C208.299 34.4081 210.243 32.3992 212.705 30.9735C215.211 29.5046 218.149 28.7701 221.519 28.7701C224.672 28.7701 227.459 29.4614 229.878 30.8439C232.298 32.2264 234.177 34.1273 235.516 36.5467C236.899 38.9228 237.59 41.5798 237.59 44.5176C237.59 44.9928 237.568 45.4897 237.525 46.0081C237.525 46.5265 237.504 47.0666 237.46 47.6282H213.029C213.202 50.134 214.066 52.0997 215.621 53.5254C217.22 54.9511 219.142 55.6639 221.389 55.6639C223.074 55.6639 224.478 55.2967 225.601 54.5623C226.768 53.7846 227.632 52.791 228.193 51.5813H236.618C236.013 53.6118 234.998 55.4695 233.572 57.1544C232.19 58.7962 230.462 60.0922 228.388 61.0427C226.357 61.9932 224.046 62.4684 221.454 62.4684ZM221.519 35.5098C219.488 35.5098 217.695 36.093 216.14 37.2595C214.585 38.3828 213.591 40.1109 213.159 42.4439H229.166C229.036 40.3269 228.258 38.642 226.833 37.3891C225.407 36.1362 223.636 35.5098 221.519 35.5098Z" fill="#242A31"/>
<path d="M241.975 61.6908V15.0316H250.269V61.6908H241.975Z" fill="#242A31"/>
<path d="M271.771 62.4684C268.531 62.4684 265.658 61.7772 263.152 60.3947C260.646 59.0122 258.68 57.068 257.255 54.5623C255.829 52.0565 255.116 49.1619 255.116 45.8785C255.116 42.5519 255.807 39.5925 257.19 37.0003C258.616 34.4081 260.56 32.3992 263.022 30.9735C265.528 29.5046 268.466 28.7701 271.836 28.7701C274.989 28.7701 277.776 29.4614 280.195 30.8439C282.615 32.2264 284.494 34.1273 285.833 36.5467C287.216 38.9228 287.907 41.5798 287.907 44.5176C287.907 44.9928 287.886 45.4897 287.842 46.0081C287.842 46.5265 287.821 47.0666 287.778 47.6282H263.346C263.519 50.134 264.383 52.0997 265.938 53.5254C267.537 54.9511 269.46 55.6639 271.706 55.6639C273.391 55.6639 274.795 55.2967 275.918 54.5623C277.085 53.7846 277.949 52.791 278.51 51.5813H286.935C286.33 53.6118 285.315 55.4695 283.889 57.1544C282.507 58.7962 280.779 60.0922 278.705 61.0427C276.674 61.9932 274.363 62.4684 271.771 62.4684ZM271.836 35.5098C269.805 35.5098 268.012 36.093 266.457 37.2595C264.902 38.3828 263.908 40.1109 263.476 42.4439H279.483C279.353 40.3269 278.575 38.642 277.15 37.3891C275.724 36.1362 273.953 35.5098 271.836 35.5098Z" fill="#242A31"/>
<path d="M305.576 62.4684C302.725 62.4684 300.219 62.0148 298.059 61.1075C295.899 60.1571 294.171 58.861 292.875 57.2193C291.579 55.5775 290.801 53.6766 290.542 51.5165H298.902C299.161 52.7694 299.852 53.8494 300.975 54.7567C302.142 55.6207 303.632 56.0528 305.447 56.0528C307.261 56.0528 308.579 55.6855 309.4 54.9511C310.264 54.2166 310.696 53.3742 310.696 52.4237C310.696 51.0412 310.091 50.1124 308.881 49.6371C307.672 49.1187 305.987 48.6219 303.827 48.1466C302.444 47.8442 301.04 47.477 299.614 47.045C298.189 46.6129 296.871 46.0729 295.661 45.4249C294.495 44.7336 293.544 43.8696 292.81 42.8327C292.076 41.7526 291.708 40.4349 291.708 38.8796C291.708 36.0282 292.832 33.6305 295.078 31.6863C297.368 29.7422 300.565 28.7701 304.669 28.7701C308.471 28.7701 311.495 29.6558 313.742 31.4271C316.032 33.1984 317.392 35.6394 317.824 38.75H309.983C309.508 36.3738 307.715 35.1858 304.604 35.1858C303.049 35.1858 301.839 35.4882 300.975 36.093C300.154 36.6979 299.744 37.4539 299.744 38.3612C299.744 39.3116 300.37 40.0677 301.623 40.6293C302.876 41.191 304.54 41.7094 306.613 42.1846C308.86 42.7031 310.912 43.2863 312.77 43.9344C314.671 44.5392 316.183 45.4681 317.306 46.7209C318.429 47.9306 318.991 49.6803 318.991 51.9701C319.034 53.9574 318.516 55.7504 317.436 57.3489C316.356 58.9474 314.8 60.2003 312.77 61.1075C310.739 62.0148 308.341 62.4684 305.576 62.4684Z" fill="#242A31"/>
<path d="M337.032 62.4684C334.18 62.4684 331.675 62.0148 329.515 61.1075C327.354 60.1571 325.626 58.861 324.33 57.2193C323.034 55.5775 322.256 53.6766 321.997 51.5165H330.357C330.616 52.7694 331.307 53.8494 332.431 54.7567C333.597 55.6207 335.088 56.0528 336.902 56.0528C338.717 56.0528 340.034 55.6855 340.855 54.9511C341.719 54.2166 342.151 53.3742 342.151 52.4237C342.151 51.0412 341.547 50.1124 340.337 49.6371C339.127 49.1187 337.442 48.6219 335.282 48.1466C333.9 47.8442 332.496 47.477 331.07 47.045C329.644 46.6129 328.326 46.0729 327.117 45.4249C325.95 44.7336 325 43.8696 324.265 42.8327C323.531 41.7526 323.164 40.4349 323.164 38.8796C323.164 36.0282 324.287 33.6305 326.534 31.6863C328.823 29.7422 332.02 28.7701 336.125 28.7701C339.926 28.7701 342.951 29.6558 345.197 31.4271C347.487 33.1984 348.848 35.6394 349.28 38.75H341.439C340.963 36.3738 339.17 35.1858 336.06 35.1858C334.505 35.1858 333.295 35.4882 332.431 36.093C331.61 36.6979 331.199 37.4539 331.199 38.3612C331.199 39.3116 331.826 40.0677 333.079 40.6293C334.332 41.191 335.995 41.7094 338.069 42.1846C340.315 42.7031 342.367 43.2863 344.225 43.9344C346.126 44.5392 347.638 45.4681 348.761 46.7209C349.885 47.9306 350.446 49.6803 350.446 51.9701C350.49 53.9574 349.971 55.7504 348.891 57.3489C347.811 58.9474 346.256 60.2003 344.225 61.1075C342.195 62.0148 339.797 62.4684 337.032 62.4684Z" fill="#242A31"/>
</svg>
