<svg width="163" height="36" viewBox="0 0 163 36" fill="none" xmlns="http://www.w3.org/2000/svg">
<path d="M22.6876 29.1888H7.19383C5.04136 29.1888 3.30366 28.4818 1.9822 27.0691C0.662188 25.655 0 23.904 0 21.8059V14.6981C0 12.6029 0.669464 10.8878 2.00694 9.55151C3.3415 8.21519 5.07192 7.54559 7.19383 7.54559H22.6876V10.4875H7.18219C5.95096 10.4875 4.95113 10.957 4.18124 11.8987C3.41136 12.8405 3.0286 13.932 3.0286 15.1776V21.6C3.0286 22.8154 3.41281 23.8925 4.18124 24.8342C4.94967 25.776 5.95096 26.2454 7.18219 26.2454H22.6876V29.1888Z" fill="white"/>
<path d="M45.8484 10.3751H31.8173C30.6181 10.3751 29.6241 10.8475 28.8411 11.7907C28.0552 12.7339 27.6637 13.8139 27.6637 15.0322V29.1874H24.6904V14.8205C24.6904 12.7526 25.3643 11.0073 26.7148 9.57738C28.0654 8.14746 29.7798 7.43466 31.8653 7.43466H45.847L45.8484 10.3751Z" fill="white"/>
<path d="M69.4557 15.2264C69.4557 17.2942 68.763 19.0179 67.3804 20.3989C65.9993 21.7827 64.2485 22.471 62.128 22.471H54.8934L54.8483 19.532H62.1426C63.5266 19.532 64.621 19.0597 65.4215 18.1165C66.1288 17.2352 66.4824 16.0933 66.4824 14.6922C66.4824 13.4149 66.0822 12.3493 65.2818 11.4969C64.4813 10.6458 63.4335 10.234 62.1426 10.2657L51.7047 10.3751C50.4706 10.3751 49.4882 10.8114 48.7489 11.6797C48.0096 12.5481 47.6399 13.5921 47.6399 14.8131V21.5811C47.6399 22.8008 48.0241 23.8837 48.7926 24.8283C49.561 25.773 50.5623 26.2453 51.7935 26.2453H67.2989V29.1872H51.8037C49.6512 29.1872 47.915 28.4787 46.5935 27.0661C45.2721 25.6534 44.6113 23.8967 44.6113 21.7986V14.6864C44.6113 12.5567 45.2561 10.8157 46.547 9.46359C47.8364 8.11143 49.5581 7.43607 51.7106 7.43607H62.3565C64.6298 7.43607 66.3966 8.19351 67.6584 9.71415C68.8561 11.1109 69.4557 12.9484 69.4557 15.2264Z" fill="white"/>
<path d="M94.5645 14.8218V29.1886H91.5912V16.868H77.1002C75.7103 16.868 74.6377 17.3302 73.881 18.2547C73.1242 19.1792 72.7472 20.3485 72.7472 21.7654C72.7472 22.9664 73.1707 24.0133 74.0178 24.9061C74.8648 25.7989 75.8879 26.2467 77.09 26.2467H87.3896V29.1886H77.1075C74.8328 29.1886 73.0179 28.4096 71.6674 26.8515C70.4056 25.3827 69.7754 23.5064 69.7754 21.2154C69.7754 19.1374 70.4871 17.4051 71.9104 16.0126C73.3337 14.623 75.0831 13.929 77.1555 13.929H91.5897C91.3743 12.8965 90.8926 12.0469 90.1489 11.3788C89.4067 10.7106 88.5233 10.3765 87.5031 10.3765H73.373V7.43607H87.3794C89.4664 7.43607 91.1881 8.14887 92.5386 9.57879C93.8877 11.0087 94.5645 12.754 94.5645 14.8218Z" fill="white"/>
<path d="M107.177 29.1888H104.365C102.275 29.1888 100.554 28.4717 99.2002 27.0403C97.8467 25.6104 97.1699 23.8594 97.1699 21.7886V0H100.2V21.5813C100.2 22.801 100.584 23.8838 101.354 24.8285C102.124 25.7731 103.125 26.2454 104.358 26.2454H107.176L107.177 29.1888Z" fill="white"/>
<path d="M111.631 4.65993H108.657V1.77417H111.631V4.65993ZM111.631 29.1889H108.657V8.00793H111.631V29.1889Z" fill="white"/>
<path d="M137.502 9.54286L126.897 29.1888H124.177L113.523 9.60478L113.569 7.71118H115.805L125.501 25.1798L135.192 7.71118H137.457L137.502 9.54286Z" fill="white"/>
<path d="M163 15.2264C163 17.2942 162.309 19.0179 160.925 20.3989C159.544 21.7827 157.793 22.471 155.675 22.471H148.438L148.393 19.532H155.687C157.071 19.532 158.165 19.0597 158.967 18.1165C159.675 17.2352 160.028 16.0933 160.028 14.6922C160.028 13.4149 159.628 12.3493 158.829 11.4969C158.027 10.6458 156.981 10.234 155.688 10.2657L145.251 10.3751C144.019 10.3751 143.034 10.8114 142.295 11.6797C141.555 12.5481 141.186 13.5921 141.186 14.8131V21.5811C141.186 22.8008 141.57 23.8837 142.34 24.8283C143.107 25.773 144.108 26.2453 145.339 26.2453H160.845V29.1872H145.348C143.196 29.1872 141.459 28.4787 140.138 27.0661C138.817 25.6534 138.157 23.8967 138.157 21.7986V14.6864C138.157 12.5567 138.799 10.8157 140.093 9.46359C141.384 8.11143 143.103 7.43607 145.255 7.43607H155.902C158.174 7.43607 159.941 8.19351 161.204 9.71415C162.401 11.1109 163 12.9484 163 15.2264Z" fill="white"/>
</svg>
