<svg width="351" height="78" viewBox="0 0 351 78" fill="none" xmlns="http://www.w3.org/2000/svg">
<path fill-rule="evenodd" clip-rule="evenodd" d="M12.8186 20.003C18.7038 12.0869 28.128 6.95833 38.75 6.95833C49.4345 6.95833 58.9069 12.1474 64.7848 20.1429C64.5341 20.4002 64.3062 20.6668 64.1005 20.9331C63.0235 22.3274 62.2139 24.1234 61.5643 25.9472C60.2578 29.6153 59.2607 34.4066 58.338 38.8933L58.255 39.2967C57.3345 43.7751 56.4783 47.9401 55.4435 51.0319C54.9786 52.4212 54.5373 53.4025 54.1468 54.0318C53.7388 53.3981 53.2757 52.404 52.7853 50.9951C51.678 47.8144 50.7478 43.4882 49.7606 38.8689L49.7283 38.7176L49.7282 38.7173C48.7801 34.2804 47.774 29.5726 46.5196 25.9691C45.8894 24.1589 45.1161 22.3809 44.1048 20.9995C43.1122 19.6438 41.46 18.1138 39.0436 18.1138C36.6423 18.1138 34.9825 19.6272 33.9756 20.9677C32.9447 22.3401 32.141 24.1108 31.4789 25.9219C30.1456 29.569 29.0555 34.3397 28.041 38.8325L27.9362 39.2967C26.9317 43.7472 25.9925 47.9082 24.9266 51.0061C24.5195 52.189 24.1355 53.0885 23.7879 53.7315C23.4482 53.0915 23.0738 52.1983 22.6779 51.0245C21.6552 47.9932 20.7594 43.9488 19.7971 39.6048L19.6287 38.8446C18.6317 34.349 17.5501 29.5697 16.1979 25.9112C15.5259 24.0933 14.7041 22.3138 13.6406 20.9349C13.3998 20.6228 13.1261 20.306 12.8186 20.003ZM9.25669 26.0813C9.53701 26.6348 9.83348 27.3208 10.1401 28.1503C11.3106 31.317 12.3023 35.6381 13.3235 40.2429L13.5222 41.1401C14.4521 45.3418 15.4192 49.7124 16.5584 53.089C17.1643 54.8849 17.896 56.6442 18.8371 58.0113C19.727 59.3041 21.3235 60.9737 23.7784 60.9737C26.2262 60.9737 27.8265 59.3124 28.7225 58.0248C29.6716 56.6608 30.4153 54.9041 31.0335 53.1074C32.2185 49.6635 33.2274 45.1904 34.193 40.9095L34.1931 40.9093L34.3407 40.255C35.3811 35.6474 36.3827 31.3177 37.5446 28.1395C38.0829 26.667 38.5869 25.6412 39.0256 25.0048C39.4415 25.6357 39.9165 26.6452 40.4203 28.0924C41.5275 31.2731 42.4577 35.5993 43.4449 40.2186L43.4772 40.3699C44.4254 44.8069 45.4315 49.5148 46.6859 53.1184C47.3161 54.9285 48.0894 56.7066 49.1008 58.088C50.0933 59.4437 51.7456 60.9737 54.162 60.9737C56.5906 60.9737 58.2368 59.43 59.2177 58.0623C60.2133 56.674 60.9626 54.8904 61.568 53.0816C62.7301 49.6093 63.6556 45.1032 64.536 40.8166L64.6639 40.1942C65.6127 35.5805 66.5237 31.2714 67.6483 28.1142C67.8929 27.4274 68.132 26.8418 68.362 26.3499C70.0856 30.301 71.0417 34.6639 71.0417 39.25C71.0417 57.0842 56.5842 71.5417 38.75 71.5417C20.9158 71.5417 6.45833 57.0842 6.45833 39.25C6.45833 34.5597 7.45831 30.1029 9.25669 26.0813ZM38.75 0.5C17.349 0.5 0 17.849 0 39.25C0 60.651 17.349 78 38.75 78C60.151 78 77.5 60.651 77.5 39.25C77.5 17.849 60.151 0.5 38.75 0.5ZM39.4882 24.4642C39.4883 24.465 39.4807 24.471 39.4656 24.4798C39.4806 24.4678 39.4882 24.4634 39.4882 24.4642ZM38.5956 24.4686C38.5806 24.4594 38.5732 24.4531 38.5732 24.4523C38.5733 24.4515 38.5807 24.4561 38.5956 24.4686ZM53.6704 54.6453C53.6703 54.6445 53.6775 54.6383 53.692 54.6288C53.6776 54.6414 53.6704 54.6461 53.6704 54.6453ZM54.6099 54.6188C54.6249 54.6281 54.6323 54.6344 54.6323 54.6352C54.6323 54.636 54.6248 54.6314 54.6099 54.6188ZM23.1166 54.7028C23.1165 54.7017 23.1258 54.6929 23.1444 54.6797C23.126 54.6972 23.1167 54.7038 23.1166 54.7028ZM24.4245 54.6859C24.4431 54.6993 24.4522 54.7081 24.4522 54.7092C24.4521 54.7103 24.4428 54.7036 24.4245 54.6859Z" fill="white"/>
<path d="M98.8966 62.1908L89.5 30.0478H97.7302L103.303 53.1829L109.784 30.0478H118.986L125.466 53.1829L131.104 30.0478H139.335L129.873 62.1908H121.254L114.385 38.1483L107.516 62.1908H98.8966Z" fill="#F0F1F2"/>
<path d="M151.412 62.9684C148.647 62.9684 146.379 62.5364 144.607 61.6723C142.836 60.7651 141.518 59.577 140.654 58.1081C139.79 56.6392 139.358 55.0191 139.358 53.2477C139.358 50.2668 140.525 47.8474 142.858 45.9897C145.191 44.1319 148.69 43.2031 153.356 43.2031H161.521V42.4254C161.521 40.2221 160.895 38.602 159.642 37.5651C158.389 36.5282 156.834 36.0098 154.976 36.0098C153.291 36.0098 151.822 36.4202 150.569 37.2411C149.317 38.0187 148.539 39.1852 148.237 40.7405H140.136C140.352 38.4076 141.13 36.377 142.469 34.6489C143.851 32.9208 145.623 31.6031 147.783 30.6958C149.943 29.7454 152.362 29.2701 155.041 29.2701C159.62 29.2701 163.228 30.415 165.863 32.7048C168.499 34.9945 169.816 38.2347 169.816 42.4254V62.1908H162.753L161.975 57.0064C161.025 58.7345 159.685 60.1602 157.957 61.2835C156.272 62.4068 154.091 62.9684 151.412 62.9684ZM153.291 56.488C155.667 56.488 157.504 55.7103 158.8 54.155C160.139 52.5997 160.981 50.6772 161.327 48.3874H154.263C152.06 48.3874 150.483 48.7979 149.533 49.6187C148.582 50.3964 148.107 51.3684 148.107 52.5349C148.107 53.7878 148.582 54.7598 149.533 55.4511C150.483 56.1423 151.736 56.488 153.291 56.488Z" fill="#F0F1F2"/>
<path d="M182.874 62.1908L171.08 30.0478H179.764L187.929 54.3494L196.095 30.0478H204.778L192.919 62.1908H182.874Z" fill="#F0F1F2"/>
<path d="M221.454 62.9684C218.214 62.9684 215.341 62.2772 212.835 60.8947C210.329 59.5122 208.363 57.568 206.938 55.0623C205.512 52.5565 204.799 49.6619 204.799 46.3785C204.799 43.0519 205.49 40.0925 206.873 37.5003C208.299 34.9081 210.243 32.8992 212.705 31.4735C215.211 30.0046 218.149 29.2701 221.519 29.2701C224.672 29.2701 227.459 29.9614 229.878 31.3439C232.298 32.7264 234.177 34.6273 235.516 37.0467C236.899 39.4228 237.59 42.0798 237.59 45.0176C237.59 45.4928 237.568 45.9897 237.525 46.5081C237.525 47.0265 237.504 47.5666 237.46 48.1282H213.029C213.202 50.634 214.066 52.5997 215.621 54.0254C217.22 55.4511 219.142 56.1639 221.389 56.1639C223.074 56.1639 224.478 55.7967 225.601 55.0623C226.768 54.2846 227.632 53.291 228.193 52.0813H236.618C236.013 54.1118 234.998 55.9695 233.572 57.6544C232.19 59.2962 230.462 60.5922 228.388 61.5427C226.357 62.4932 224.046 62.9684 221.454 62.9684ZM221.519 36.0098C219.488 36.0098 217.695 36.593 216.14 37.7595C214.585 38.8828 213.591 40.6109 213.159 42.9439H229.166C229.036 40.8269 228.258 39.142 226.833 37.8891C225.407 36.6362 223.636 36.0098 221.519 36.0098Z" fill="#F0F1F2"/>
<path d="M241.975 62.1908V15.5316H250.269V62.1908H241.975Z" fill="#F0F1F2"/>
<path d="M271.771 62.9684C268.531 62.9684 265.658 62.2772 263.152 60.8947C260.646 59.5122 258.68 57.568 257.255 55.0623C255.829 52.5565 255.116 49.6619 255.116 46.3785C255.116 43.0519 255.807 40.0925 257.19 37.5003C258.616 34.9081 260.56 32.8992 263.022 31.4735C265.528 30.0046 268.466 29.2701 271.836 29.2701C274.989 29.2701 277.776 29.9614 280.195 31.3439C282.615 32.7264 284.494 34.6273 285.833 37.0467C287.216 39.4228 287.907 42.0798 287.907 45.0176C287.907 45.4928 287.886 45.9897 287.842 46.5081C287.842 47.0265 287.821 47.5666 287.778 48.1282H263.346C263.519 50.634 264.383 52.5997 265.938 54.0254C267.537 55.4511 269.46 56.1639 271.706 56.1639C273.391 56.1639 274.795 55.7967 275.918 55.0623C277.085 54.2846 277.949 53.291 278.51 52.0813H286.935C286.33 54.1118 285.315 55.9695 283.889 57.6544C282.507 59.2962 280.779 60.5922 278.705 61.5427C276.674 62.4932 274.363 62.9684 271.771 62.9684ZM271.836 36.0098C269.805 36.0098 268.012 36.593 266.457 37.7595C264.902 38.8828 263.908 40.6109 263.476 42.9439H279.483C279.353 40.8269 278.575 39.142 277.15 37.8891C275.724 36.6362 273.953 36.0098 271.836 36.0098Z" fill="#F0F1F2"/>
<path d="M305.576 62.9684C302.725 62.9684 300.219 62.5148 298.059 61.6075C295.899 60.6571 294.171 59.361 292.875 57.7193C291.579 56.0775 290.801 54.1766 290.542 52.0165H298.902C299.161 53.2694 299.852 54.3494 300.975 55.2567C302.142 56.1207 303.632 56.5528 305.447 56.5528C307.261 56.5528 308.579 56.1855 309.4 55.4511C310.264 54.7166 310.696 53.8742 310.696 52.9237C310.696 51.5412 310.091 50.6124 308.881 50.1371C307.672 49.6187 305.987 49.1219 303.827 48.6466C302.444 48.3442 301.04 47.977 299.614 47.545C298.189 47.1129 296.871 46.5729 295.661 45.9249C294.495 45.2336 293.544 44.3696 292.81 43.3327C292.076 42.2526 291.708 40.9349 291.708 39.3796C291.708 36.5282 292.832 34.1305 295.078 32.1863C297.368 30.2422 300.565 29.2701 304.669 29.2701C308.471 29.2701 311.495 30.1558 313.742 31.9271C316.032 33.6984 317.392 36.1394 317.824 39.25H309.983C309.508 36.8738 307.715 35.6858 304.604 35.6858C303.049 35.6858 301.839 35.9882 300.975 36.593C300.154 37.1979 299.744 37.9539 299.744 38.8612C299.744 39.8116 300.37 40.5677 301.623 41.1293C302.876 41.691 304.54 42.2094 306.613 42.6846C308.86 43.2031 310.912 43.7863 312.77 44.4344C314.671 45.0392 316.183 45.9681 317.306 47.2209C318.429 48.4306 318.991 50.1803 318.991 52.4701C319.034 54.4574 318.516 56.2504 317.436 57.8489C316.356 59.4474 314.8 60.7003 312.77 61.6075C310.739 62.5148 308.341 62.9684 305.576 62.9684Z" fill="#F0F1F2"/>
<path d="M337.032 62.9684C334.18 62.9684 331.675 62.5148 329.515 61.6075C327.354 60.6571 325.626 59.361 324.33 57.7193C323.034 56.0775 322.256 54.1766 321.997 52.0165H330.357C330.616 53.2694 331.307 54.3494 332.431 55.2567C333.597 56.1207 335.088 56.5528 336.902 56.5528C338.717 56.5528 340.034 56.1855 340.855 55.4511C341.719 54.7166 342.151 53.8742 342.151 52.9237C342.151 51.5412 341.547 50.6124 340.337 50.1371C339.127 49.6187 337.442 49.1219 335.282 48.6466C333.9 48.3442 332.496 47.977 331.07 47.545C329.644 47.1129 328.326 46.5729 327.117 45.9249C325.95 45.2336 325 44.3696 324.265 43.3327C323.531 42.2526 323.164 40.9349 323.164 39.3796C323.164 36.5282 324.287 34.1305 326.534 32.1863C328.823 30.2422 332.02 29.2701 336.125 29.2701C339.926 29.2701 342.951 30.1558 345.197 31.9271C347.487 33.6984 348.848 36.1394 349.28 39.25H341.439C340.963 36.8738 339.17 35.6858 336.06 35.6858C334.505 35.6858 333.295 35.9882 332.431 36.593C331.61 37.1979 331.199 37.9539 331.199 38.8612C331.199 39.8116 331.826 40.5677 333.079 41.1293C334.332 41.691 335.995 42.2094 338.069 42.6846C340.315 43.2031 342.367 43.7863 344.225 44.4344C346.126 45.0392 347.638 45.9681 348.761 47.2209C349.885 48.4306 350.446 50.1803 350.446 52.4701C350.49 54.4574 349.971 56.2504 348.891 57.8489C347.811 59.4474 346.256 60.7003 344.225 61.6075C342.195 62.5148 339.797 62.9684 337.032 62.9684Z" fill="#F0F1F2"/>
</svg>
