<svg width="163" height="36" viewBox="0 0 163 36" fill="none" xmlns="http://www.w3.org/2000/svg">
<path d="M22.6876 29.1888H7.19383C5.04136 29.1888 3.30366 28.4818 1.9822 27.0691C0.662188 25.655 0 23.904 0 21.8059V14.6981C0 12.6029 0.669464 10.8878 2.00694 9.55151C3.3415 8.21519 5.07192 7.54559 7.19383 7.54559H22.6876V10.4875H7.18219C5.95096 10.4875 4.95113 10.957 4.18124 11.8987C3.41136 12.8405 3.0286 13.932 3.0286 15.1776V21.6C3.0286 22.8154 3.41281 23.8925 4.18124 24.8342C4.94967 25.776 5.95096 26.2454 7.18219 26.2454H22.6876V29.1888Z" fill="black"/>
<path d="M45.8482 10.3751H31.8171C30.6179 10.3751 29.6238 10.8475 28.8409 11.7907C28.055 12.7339 27.6635 13.8139 27.6635 15.0322V29.1874H24.6902V14.8205C24.6902 12.7526 25.364 11.0073 26.7146 9.57738C28.0652 8.14746 29.7796 7.43466 31.8651 7.43466H45.8467L45.8482 10.3751Z" fill="black"/>
<path d="M69.4555 15.2264C69.4555 17.2942 68.7627 19.0179 67.3801 20.3989C65.999 21.7827 64.2482 22.471 62.1278 22.471H54.8932L54.8481 19.532H62.1423C63.5264 19.532 64.6208 19.0597 65.4212 18.1165C66.1285 17.2352 66.4822 16.0933 66.4822 14.6922C66.4822 13.4149 66.082 12.3493 65.2815 11.4969C64.4811 10.6458 63.4332 10.234 62.1423 10.2657L51.7045 10.3751C50.4704 10.3751 49.488 10.8114 48.7487 11.6797C48.0093 12.5481 47.6397 13.5921 47.6397 14.8131V21.5811C47.6397 22.8008 48.0239 23.8837 48.7923 24.8283C49.5608 25.773 50.562 26.2453 51.7933 26.2453H67.2986V29.1872H51.8035C49.651 29.1872 47.9147 28.4787 46.5933 27.0661C45.2718 25.6534 44.6111 23.8967 44.6111 21.7986V14.6864C44.6111 12.5567 45.2558 10.8157 46.5467 9.46359C47.8362 8.11143 49.5578 7.43607 51.7103 7.43607H62.3563C64.6295 7.43607 66.3963 8.19351 67.6581 9.71415C68.8559 11.1109 69.4555 12.9484 69.4555 15.2264Z" fill="black"/>
<path d="M94.5647 14.8218V29.1886H91.5914V16.868H77.1004C75.7106 16.868 74.638 17.3302 73.8812 18.2547C73.1244 19.1792 72.7475 20.3485 72.7475 21.7654C72.7475 22.9664 73.171 24.0133 74.018 24.9061C74.865 25.7989 75.8881 26.2467 77.0903 26.2467H87.3898V29.1886H77.1077C74.833 29.1886 73.0182 28.4096 71.6676 26.8515C70.4058 25.3827 69.7756 23.5064 69.7756 21.2154C69.7756 19.1374 70.4873 17.4051 71.9106 16.0126C73.334 14.623 75.0833 13.929 77.1557 13.929H91.59C91.3746 12.8965 90.8929 12.0469 90.1492 11.3788C89.4069 10.7106 88.5235 10.3765 87.5033 10.3765H73.3733V7.43607H87.3796C89.4666 7.43607 91.1883 8.14887 92.5389 9.57879C93.888 11.0087 94.5647 12.754 94.5647 14.8218Z" fill="black"/>
<path d="M107.177 29.1888H104.365C102.275 29.1888 100.554 28.4717 99.2 27.0403C97.8465 25.6104 97.1698 23.8594 97.1698 21.7886V0H100.2V21.5813C100.2 22.801 100.584 23.8838 101.354 24.8285C102.124 25.7731 103.125 26.2454 104.358 26.2454H107.175L107.177 29.1888Z" fill="black"/>
<path d="M111.63 4.65993H108.657V1.77417H111.63V4.65993ZM111.63 29.1889H108.657V8.00793H111.63V29.1889Z" fill="black"/>
<path d="M137.502 9.54286L126.897 29.1888H124.177L113.524 9.60478L113.569 7.71118H115.806L125.501 25.1798L135.192 7.71118H137.457L137.502 9.54286Z" fill="black"/>
<path d="M163 15.2264C163 17.2942 162.309 19.0179 160.925 20.3989C159.544 21.7827 157.793 22.471 155.675 22.471H148.438L148.393 19.532H155.687C157.071 19.532 158.165 19.0597 158.967 18.1165C159.674 17.2352 160.028 16.0933 160.028 14.6922C160.028 13.4149 159.628 12.3493 158.829 11.4969C158.027 10.6458 156.981 10.234 155.688 10.2657L145.25 10.3751C144.019 10.3751 143.034 10.8114 142.295 11.6797C141.555 12.5481 141.186 13.5921 141.186 14.8131V21.5811C141.186 22.8008 141.57 23.8837 142.34 24.8283C143.107 25.773 144.108 26.2453 145.339 26.2453H160.845V29.1872H145.348C143.195 29.1872 141.459 28.4787 140.138 27.0661C138.816 25.6534 138.157 23.8967 138.157 21.7986V14.6864C138.157 12.5567 138.799 10.8157 140.093 9.46359C141.384 8.11143 143.102 7.43607 145.255 7.43607H155.902C158.174 7.43607 159.941 8.19351 161.204 9.71415C162.4 11.1109 163 12.9484 163 15.2264Z" fill="black"/>
</svg>
