<?xml version="1.0" standalone="no"?>
<!DOCTYPE svg PUBLIC "-//W3C//DTD SVG 20010904//EN"
 "http://www.w3.org/TR/2001/REC-SVG-20010904/DTD/svg10.dtd">
<svg version="1.0" xmlns="http://www.w3.org/2000/svg"
 width="5216.000000pt" height="5216.000000pt" viewBox="0 0 5216.000000 5216.000000"
 preserveAspectRatio="xMidYMid meet">
<metadata>
Created by potrace 1.14, written by Peter Selinger 2001-2017
</metadata>
<g transform="translate(0.000000,5216.000000) scale(0.100000,-0.100000)"
fill="#000000" stroke="none">
<path d="M31096 27323 c1 -3326 4 -3788 24 -3788 1 0 4 -22 6 -50 7 -67 66
-310 102 -415 40 -116 58 -157 126 -290 32 -63 64 -125 70 -137 6 -13 14 -23
19 -23 4 0 7 -5 7 -11 0 -6 8 -21 18 -34 9 -12 24 -33 32 -45 8 -12 21 -28 28
-36 6 -7 12 -16 12 -19 0 -8 109 -144 164 -204 132 -144 343 -327 426 -371 14
-7 35 -22 48 -33 12 -11 22 -18 22 -14 0 6 61 -31 88 -53 6 -6 12 -8 12 -6 0
3 35 -12 78 -33 77 -39 205 -91 244 -100 4 -1 27 -9 50 -17 36 -13 118 -35
178 -48 51 -11 113 -22 180 -31 19 -2 46 -7 60 -10 51 -11 427 -21 436 -12 3
3 12 3 19 1 22 -9 295 -9 295 -1 0 5 5 5 11 2 9 -6 135 -9 157 -4 4 1 11 1 16
0 9 -2 222 -3 256 -2 14 1 16 54 15 465 0 255 -3 467 -7 471 -3 4 -242 8 -530
10 -288 1 -534 5 -548 7 -14 3 -47 9 -75 14 -57 9 -55 9 -75 17 -8 3 -35 11
-60 17 -25 7 -51 17 -57 22 -7 6 -13 8 -13 4 0 -7 -55 19 -165 78 -11 6 -22
13 -25 16 -3 3 -31 22 -62 43 -64 43 -210 183 -248 237 -13 19 -30 41 -38 49
-24 25 -96 136 -130 201 -19 36 -37 70 -41 75 -4 6 -17 37 -30 70 -12 33 -26
69 -31 80 -32 79 -63 203 -75 300 -4 28 -9 59 -13 70 -3 11 -7 1606 -8 3545
-1 1939 -2 3531 -3 3538 -1 9 -105 12 -484 12 l-482 0 1 -3557z"/>
<path d="M34774 30311 c-2 -2 -4 -211 -4 -463 l0 -458 475 0 c415 0 475 2 476
15 1 8 2 21 3 28 1 6 -1 24 -5 40 -4 15 -5 27 -1 27 4 0 6 66 4 147 -3 146 -2
174 2 243 1 19 -1 47 -5 63 -4 15 -5 27 -1 27 4 0 7 74 7 164 0 90 -2 164 -5
164 -3 0 -7 0 -10 1 -11 4 -932 6 -936 2z"/>
<path d="M10187 28504 c-1 -1 -60 -5 -132 -9 -71 -3 -141 -8 -155 -10 -25 -3
-121 -16 -150 -20 -8 -1 -26 -5 -40 -8 -14 -4 -36 -9 -50 -12 -21 -4 -58 -12
-102 -24 -10 -2 -27 -7 -67 -20 -18 -6 -37 -8 -42 -5 -5 3 -9 0 -9 -7 0 -7 -3
-9 -6 -6 -4 3 -16 1 -28 -5 -11 -7 -23 -13 -26 -13 -28 -6 -90 -30 -90 -35 0
-4 -6 -7 -12 -7 -13 0 -149 -62 -158 -72 -3 -3 -10 -7 -17 -8 -16 -3 -163 -94
-187 -115 -11 -10 -28 -20 -38 -24 -10 -3 -18 -10 -18 -15 0 -5 -4 -9 -10 -9
-11 0 -30 -15 -94 -72 -22 -21 -46 -38 -53 -38 -6 0 -15 -9 -18 -20 -3 -11 -9
-20 -13 -20 -17 0 -135 -124 -271 -285 -44 -52 -181 -258 -181 -272 0 -7 -4
-13 -10 -13 -5 0 -10 -5 -10 -10 0 -6 -10 -27 -23 -48 -27 -43 -108 -223 -107
-237 0 -3 -7 -19 -15 -35 -9 -17 -13 -30 -9 -30 4 0 2 -6 -3 -12 -14 -19 -63
-182 -79 -263 -2 -11 -6 -31 -9 -45 -19 -87 -25 -127 -30 -183 -3 -29 -7 -63
-10 -77 -3 -14 -7 -82 -10 -152 -2 -69 -5 -130 -6 -135 -1 -4 -1 -12 0 -18 2
-12 2 -438 0 -445 -1 -3 0 -9 1 -15 3 -13 3 -267 0 -280 -1 -5 -2 -13 -1 -17
3 -10 3 -156 0 -165 -1 -5 0 -12 1 -18 2 -11 1 -457 -1 -465 -1 -3 0 -9 1 -15
3 -13 3 -267 0 -280 -1 -5 -2 -13 -1 -17 1 -5 2 -42 2 -83 0 -41 -1 -78 -2
-82 -1 -5 0 -12 1 -18 2 -11 1 -457 -1 -465 -1 -3 0 -9 1 -15 3 -13 3 -267 0
-280 -1 -5 -2 -13 -1 -17 1 -5 2 -42 2 -83 0 -41 -1 -78 -2 -82 -1 -5 0 -12 1
-18 2 -11 1 -457 -1 -465 -1 -3 0 -9 1 -15 3 -13 3 -267 0 -280 -1 -5 -2 -13
-1 -17 1 -5 2 -42 2 -83 0 -41 -1 -78 -2 -82 -1 -5 0 -12 1 -18 2 -11 1 -457
-1 -465 -1 -3 0 -9 1 -15 1 -5 2 -71 2 -145 l0 -135 135 2 c74 1 137 4 140 6
2 3 19 1 38 -3 19 -4 36 -6 38 -3 3 2 99 3 213 3 115 -1 220 -1 234 0 14 1 32
1 40 1 34 -2 105 0 108 4 2 2 5 1058 7 2347 2 1289 5 2359 8 2378 10 79 19
123 26 144 5 11 9 24 9 29 0 4 3 20 6 35 4 15 8 36 11 47 7 36 55 159 87 225
17 36 32 67 32 70 3 13 61 105 68 108 4 2 8 8 8 14 0 5 9 22 20 36 96 124 126
160 181 218 35 36 100 93 144 125 44 33 85 63 90 67 11 8 135 69 195 95 20 9
48 18 64 21 15 3 33 10 40 15 7 6 15 9 17 7 2 -3 33 2 69 10 49 11 359 29 435
26 8 -1 237 -1 315 -1 8 0 80 0 160 0 80 0 152 0 160 0 44 0 308 0 325 0 50
-1 248 0 254 1 3 0 11 0 16 -1 6 -1 53 -1 105 -1 52 1 102 1 110 1 8 0 67 0
130 0 63 0 122 0 130 0 55 0 463 0 468 0 4 1 12 1 17 0 6 -1 53 -1 105 -1 52
1 102 1 110 1 8 0 69 0 135 0 66 0 127 0 135 0 40 0 453 0 458 1 4 0 12 0 17
-1 6 -1 53 -1 105 -1 52 1 102 1 110 1 8 0 67 0 130 0 63 0 120 0 125 0 22 0
201 0 215 0 17 0 294 0 325 0 11 0 46 -1 77 -1 l57 0 -53 -88 c-61 -100 -146
-273 -146 -296 0 -9 -4 -16 -8 -16 -5 0 -9 -6 -10 -12 -1 -7 -20 -67 -42 -132
-22 -66 -38 -121 -35 -124 2 -3 0 -13 -6 -24 -11 -21 -11 -21 -34 -143 -19
-100 -28 -171 -40 -310 -2 -16 -4 -30 -5 -30 -4 0 -6 -2620 -2 -2628 4 -8 14
-149 16 -214 0 -18 3 -33 6 -33 3 0 6 -10 7 -22 0 -13 3 -36 6 -53 3 -16 8
-46 12 -65 3 -19 8 -46 12 -60 3 -14 8 -34 10 -45 10 -58 101 -334 114 -349 5
-6 9 -18 9 -27 0 -10 7 -25 16 -33 8 -9 13 -16 9 -16 -3 0 18 -46 48 -102 71
-135 90 -168 100 -168 4 0 7 -5 7 -11 0 -14 47 -80 139 -198 88 -112 324 -351
346 -351 3 0 13 -8 23 -17 35 -33 62 -53 62 -45 0 4 4 2 8 -4 10 -15 151 -108
190 -125 18 -8 32 -18 32 -22 0 -5 4 -6 9 -2 5 3 17 -2 25 -11 9 -8 16 -12 16
-8 0 3 6 2 13 -4 27 -23 280 -122 347 -137 8 -2 42 -11 75 -20 33 -9 69 -18
80 -19 11 -2 47 -8 80 -15 114 -21 381 -45 465 -42 81 2 395 -1 401 -5 4 -2
10 0 13 5 3 5 21 5 41 1 19 -4 37 -5 39 -1 2 3 93 4 201 1 108 -3 199 -2 201
1 2 4 20 3 39 -1 19 -4 37 -5 39 -1 2 3 93 4 201 1 108 -3 199 -2 201 1 2 4
20 3 39 -1 19 -4 37 -5 39 -1 2 3 93 4 201 1 108 -3 199 -2 201 1 2 4 20 3 39
-1 19 -4 37 -5 39 -1 2 3 93 4 201 1 108 -3 199 -2 201 1 2 4 20 3 39 -1 19
-4 37 -5 39 -1 2 3 93 4 201 1 108 -3 199 -2 201 1 2 4 20 3 39 -1 19 -4 37
-5 39 -1 2 3 93 4 201 1 108 -3 199 -2 201 1 2 4 20 3 39 -1 19 -4 37 -5 39
-1 2 3 93 4 201 1 108 -3 199 -2 201 1 2 4 19 3 38 -1 19 -4 37 -6 39 -4 2 3
256 4 563 4 l559 0 0 470 c0 411 -2 470 -15 471 -8 0 -1158 1 -2555 3 -1397 2
-2556 6 -2577 9 -69 10 -151 29 -204 47 -30 11 -54 16 -54 12 0 -3 -5 -1 -12
6 -7 7 -20 12 -30 12 -10 0 -18 3 -18 8 0 4 -19 15 -43 25 -24 9 -67 33 -96
52 -29 19 -57 35 -61 35 -5 0 -16 10 -24 22 -9 12 -16 19 -16 15 0 -4 -14 5
-32 20 -45 40 -178 173 -178 180 0 3 -18 27 -40 53 -22 26 -40 52 -40 58 0 5
-7 12 -15 16 -8 3 -15 10 -15 15 0 5 -20 41 -44 81 -39 63 -124 242 -130 274
-2 6 -12 43 -23 81 -22 75 -32 115 -39 155 -2 14 -6 34 -9 46 -16 72 -19 282
-19 1349 0 1059 4 1312 19 1357 2 7 6 27 9 43 13 86 67 267 87 292 6 7 8 13 5
13 -8 0 74 162 87 171 5 3 8 9 8 13 -1 6 46 83 64 102 5 6 17 22 25 34 51 75
176 198 268 263 133 94 324 173 466 192 15 3 36 7 45 10 41 13 154 15 1656 30
220 2 681 7 1025 11 826 9 1001 9 1085 1 82 -8 210 -34 236 -48 11 -5 19 -7
19 -4 0 5 57 -15 125 -45 22 -9 55 -23 73 -31 17 -8 32 -17 32 -21 0 -5 6 -8
13 -8 15 0 138 -82 186 -124 57 -50 151 -145 151 -151 0 -3 10 -16 23 -28 68
-66 202 -303 232 -409 2 -5 4 -10 5 -13 1 -3 3 -8 5 -12 1 -5 5 -15 8 -23 4
-8 9 -26 11 -40 3 -14 5 -25 6 -25 2 0 6 -19 15 -64 3 -19 7 -37 9 -40 2 -3 7
-31 11 -61 3 -30 9 -68 11 -85 7 -39 7 -330 1 -375 -3 -19 -8 -66 -12 -105 -4
-38 -9 -73 -11 -76 -2 -4 -6 -24 -10 -44 -25 -160 -87 -330 -178 -490 -21 -38
-43 -71 -48 -73 -4 -2 -8 -8 -8 -13 0 -13 -61 -93 -114 -149 -88 -92 -200
-180 -306 -237 -60 -33 -220 -99 -260 -107 -14 -3 -45 -11 -70 -17 -25 -6 -56
-13 -70 -14 -14 -2 -25 -4 -25 -5 0 -2 -67 -9 -135 -14 -30 -2 -598 -5 -1262
-5 l-1206 -1 4 -327 c3 -181 6 -356 8 -390 1 -35 -2 -63 -7 -63 -4 0 -5 -6 0
-12 4 -7 8 -42 8 -78 l0 -65 1255 0 c1104 0 1364 4 1447 19 11 3 38 7 59 11
70 11 93 15 161 31 38 9 75 17 83 19 8 2 15 4 15 5 0 1 8 3 17 5 96 18 384
140 493 208 158 98 242 158 344 244 78 67 240 234 291 302 14 18 39 50 57 72
17 21 42 56 54 76 13 21 27 40 31 41 4 2 8 8 8 13 0 6 15 33 33 62 17 29 41
70 52 92 11 22 24 43 30 47 5 4 7 8 3 8 -4 0 1 17 11 38 28 53 56 119 76 177
9 28 20 57 23 65 6 17 10 32 16 58 3 9 5 17 6 17 4 0 58 241 66 295 11 78 13
93 20 185 13 155 5 600 -11 625 -2 3 -6 34 -9 70 -6 63 -12 97 -36 210 -6 30
-13 64 -15 75 -2 11 -4 20 -5 20 -1 0 -4 11 -7 25 -2 14 -6 30 -7 35 -2 6 -6
24 -11 40 -42 165 -144 406 -244 579 -27 47 -122 189 -131 196 -3 3 -14 16
-23 29 -49 73 -268 301 -336 351 -18 14 -43 33 -55 44 -32 28 -183 126 -194
126 -6 0 -12 4 -14 8 -7 20 -313 155 -372 166 -14 3 -30 7 -36 11 -11 7 -16 8
-110 31 -154 36 -262 53 -450 69 -72 6 -3671 6 -3775 0 -151 -9 -210 -16 -400
-51 -97 -17 -365 -101 -376 -117 -3 -5 -9 -8 -13 -8 -3 1 -8 0 -11 0 -3 -1 -8
-2 -12 -3 -22 -5 -169 -80 -175 -90 -4 -6 -8 -8 -8 -4 0 8 -104 -53 -140 -82
-14 -11 -30 -20 -37 -20 -6 0 -13 -3 -15 -7 -4 -10 -94 -83 -102 -83 -3 0 -18
-12 -34 -27 -16 -16 -49 -47 -73 -69 -85 -80 -234 -244 -222 -244 5 0 3 -4 -3
-8 -5 -4 -27 -29 -47 -56 l-37 -49 0 462 0 461 -32 0 c-164 1 -4450 5 -4451 4z"/>
<path d="M23518 28502 c-20 -2 -39 -10 -42 -18 -3 -7 -1 -14 3 -14 5 0 5 -16
1 -35 -5 -21 -4 -35 2 -35 5 0 6 -4 3 -10 -9 -14 -12 -80 -4 -80 4 0 3 -16 -1
-35 -4 -19 -4 -35 1 -35 5 0 5 -10 1 -22 -4 -13 -6 -36 -5 -53 5 -50 3 -106
-3 -116 -3 -6 -1 -16 6 -24 7 -9 8 -15 0 -20 -7 -4 -7 -12 0 -26 8 -13 7 -19
0 -19 -6 0 -8 -5 -4 -12 8 -13 12 -68 4 -63 -3 2 -5 -19 -5 -46 0 -27 3 -49 7
-49 4 0 5 -6 2 -13 -8 -23 -10 -149 -1 -154 4 -3 3 -11 -3 -18 -8 -9 -8 -15 0
-20 6 -3 8 -11 5 -16 -4 -5 9 -9 27 -10 18 0 41 -2 51 -4 9 -2 17 0 17 4 0 4
23 5 50 1 28 -4 53 -3 56 1 2 5 11 6 19 3 20 -8 195 -10 195 -3 0 4 16 3 34
-1 19 -4 37 -5 40 -3 3 3 24 5 48 4 149 -6 198 -5 198 2 0 5 4 6 8 3 5 -3 37
-5 73 -5 77 -1 104 -2 147 -4 19 -1 36 1 38 5 3 4 11 5 19 2 23 -9 195 -10
195 -1 0 5 4 6 9 3 8 -5 88 -8 141 -6 22 1 471 1 500 0 14 -1 40 -2 58 -3 19
-1 36 1 38 5 3 4 11 5 19 2 23 -9 195 -10 195 -1 0 5 4 6 9 3 8 -5 88 -8 141
-6 22 1 471 1 500 0 14 -1 40 -2 58 -3 19 -1 36 1 38 5 3 4 11 5 19 2 23 -9
195 -10 195 -1 0 5 4 6 9 3 8 -5 59 -7 144 -6 9 0 23 0 30 -1 6 0 39 0 72 0
33 0 97 0 143 -2 45 -1 82 1 82 4 0 4 16 3 34 -1 19 -4 37 -5 40 -3 3 3 24 5
48 4 140 -5 198 -5 198 0 0 3 23 3 50 -1 28 -4 53 -3 56 1 2 5 11 6 19 3 20
-8 195 -10 195 -3 0 4 16 3 34 -1 19 -4 37 -5 40 -3 3 3 22 5 43 4 21 -1 103
-3 183 -6 80 -2 152 -6 160 -8 15 -4 74 -16 100 -21 8 -1 35 -8 60 -15 25 -7
54 -15 64 -17 11 -2 24 -8 30 -14 5 -5 18 -10 28 -10 10 0 18 -5 18 -12 0 -6
3 -9 6 -5 7 7 101 -39 157 -77 21 -14 40 -26 43 -26 10 0 140 -108 194 -162
81 -80 190 -216 190 -237 0 -6 3 -11 8 -11 4 0 19 -21 32 -47 14 -27 28 -50
31 -53 18 -16 113 -265 134 -355 15 -65 17 -62 -33 -60 -26 1 -53 -3 -59 -8
-7 -5 -13 -6 -13 -1 0 11 -90 11 -107 1 -7 -5 -13 -5 -13 0 0 10 -331 10 -348
-1 -6 -4 -12 -4 -12 1 0 10 -91 10 -107 0 -7 -5 -13 -5 -13 0 0 10 -331 10
-348 -1 -6 -4 -12 -4 -12 1 0 10 -91 10 -107 0 -7 -5 -13 -5 -13 0 0 10 -331
10 -348 -1 -6 -4 -12 -4 -12 1 0 10 -91 10 -107 0 -7 -5 -13 -5 -13 0 0 10
-331 10 -348 -1 -6 -4 -12 -4 -12 1 0 10 -91 10 -107 0 -7 -5 -13 -5 -13 0 0
10 -331 10 -348 -1 -6 -4 -12 -4 -12 1 0 10 -91 10 -107 0 -7 -5 -13 -5 -13 0
0 10 -331 10 -348 -1 -6 -4 -12 -4 -12 1 0 10 -91 10 -107 0 -7 -5 -13 -5 -13
0 0 10 -331 10 -348 -1 -6 -4 -12 -4 -12 1 0 10 -91 10 -107 0 -7 -5 -13 -5
-13 0 0 10 -171 10 -187 0 -7 -5 -13 -5 -13 0 0 10 -91 10 -107 0 -7 -5 -13
-5 -13 0 0 10 -331 10 -348 -1 -6 -4 -12 -4 -12 1 0 15 -543 5 -665 -12 -22
-4 -51 -8 -65 -10 -14 -1 -43 -7 -65 -11 -22 -4 -44 -8 -50 -9 -24 -2 -94 -18
-144 -32 -29 -8 -61 -17 -70 -18 -9 -2 -16 -4 -16 -5 0 -1 -7 -3 -15 -5 -41
-9 -227 -79 -241 -91 -8 -8 -21 -14 -27 -14 -21 0 -198 -96 -293 -160 -50 -33
-93 -60 -95 -60 -2 0 -12 -8 -22 -17 -10 -10 -34 -30 -53 -45 -110 -86 -282
-252 -365 -353 -27 -33 -52 -61 -56 -63 -5 -2 -8 -10 -8 -17 0 -7 -3 -15 -8
-17 -8 -3 -102 -134 -102 -142 0 -3 -13 -25 -29 -48 -16 -24 -27 -46 -25 -50
3 -5 1 -8 -4 -8 -10 0 -70 -118 -112 -225 -16 -38 -34 -83 -41 -100 -7 -16
-14 -39 -16 -49 -2 -11 -10 -39 -18 -63 -15 -44 -33 -114 -41 -163 -2 -14 -9
-45 -14 -70 -5 -25 -12 -63 -14 -85 -3 -22 -9 -67 -13 -100 -11 -80 -10 -532
0 -620 5 -38 10 -86 12 -105 2 -19 8 -64 14 -100 7 -36 14 -78 16 -95 3 -16 8
-41 11 -55 4 -14 7 -35 8 -47 0 -13 4 -23 7 -23 3 0 6 -6 7 -12 7 -97 125
-419 216 -588 22 -41 45 -85 50 -97 6 -13 14 -23 19 -23 4 0 7 -5 7 -11 0 -7
16 -34 35 -60 19 -27 35 -51 35 -54 0 -3 6 -13 14 -22 8 -10 46 -58 85 -107
81 -103 197 -226 212 -226 6 0 7 -4 4 -10 -3 -5 -3 -10 2 -10 4 0 22 -12 38
-26 17 -14 50 -43 75 -63 25 -20 47 -39 50 -42 4 -5 119 -83 190 -129 66 -43
350 -176 350 -163 0 3 6 1 13 -4 18 -15 233 -77 304 -88 12 -2 36 -6 55 -11
18 -4 43 -8 55 -10 13 -1 42 -5 65 -9 101 -17 527 -36 573 -25 6 1 15 2 20 1
14 -3 288 -3 300 -1 6 1 15 2 20 1 14 -3 288 -3 300 -1 6 1 15 2 20 1 14 -3
288 -3 300 -1 6 1 15 2 20 1 14 -3 288 -3 300 -1 6 1 15 2 20 1 14 -3 288 -3
300 -1 6 1 15 2 20 1 14 -3 288 -3 300 -1 6 1 15 2 20 1 14 -3 288 -3 300 -1
6 1 15 2 20 1 14 -3 288 -3 300 -1 6 1 15 2 20 1 14 -3 288 -3 300 -1 6 1 12
2 15 1 5 -2 160 -3 190 -2 13 1 15 60 15 465 0 256 -3 467 -7 471 -4 4 -784 8
-1735 9 -1372 2 -1740 5 -1788 15 -33 7 -64 14 -70 15 -95 21 -240 73 -295
106 -8 5 -39 22 -67 37 -29 15 -53 31 -53 35 0 4 -6 8 -13 8 -7 0 -22 8 -33
18 -10 9 -37 30 -59 47 -43 32 -235 219 -235 230 0 6 -13 23 -41 53 -25 27
-79 110 -79 121 0 6 -3 11 -7 11 -5 0 -19 24 -33 53 -14 28 -28 54 -31 57 -12
11 -84 208 -94 259 -2 11 -6 24 -8 29 -3 4 -8 27 -11 52 -3 25 -8 56 -11 70
-3 14 -8 63 -10 108 -2 46 -6 86 -9 89 -2 3 -1 16 4 29 5 13 6 24 2 24 -4 0
-6 15 -5 32 1 18 2 33 3 33 1 0 3 25 5 56 3 64 13 155 21 190 3 13 7 35 9 49
9 62 16 92 40 175 14 49 40 123 58 164 17 42 30 79 29 84 -1 4 1 7 6 7 4 0 13
15 21 33 56 127 231 348 353 443 50 39 117 84 126 84 6 0 12 3 14 8 4 10 149
79 183 87 6 2 17 4 25 6 8 2 17 7 20 11 3 4 24 10 45 14 22 3 43 8 47 11 8 4
33 10 87 19 18 3 43 7 54 10 76 14 462 17 2537 16 1279 0 2330 -1 2337 -1 9
-1 12 -440 12 -1883 0 -1036 1 -1887 2 -1893 1 -5 0 -14 -1 -20 -4 -15 1 -139
5 -143 4 -4 332 -6 350 -2 6 1 15 2 20 1 14 -3 288 -3 300 -1 6 1 12 2 15 1 5
-2 141 -3 218 -2 l42 1 -3 2428 c-2 1335 -6 2445 -10 2467 -3 22 -8 60 -12 85
-3 25 -8 56 -11 68 -2 13 -7 43 -11 65 -3 23 -8 47 -12 52 -4 6 -8 24 -10 40
-4 39 -68 250 -87 286 -8 16 -12 29 -9 29 3 0 -6 23 -20 50 -14 28 -22 50 -18
50 5 0 3 4 -2 8 -6 4 -19 27 -30 52 -23 52 -104 195 -146 258 -16 24 -29 45
-29 48 0 3 -13 19 -30 37 -16 18 -30 35 -30 39 0 3 -24 35 -52 70 -130 157
-273 295 -423 408 -22 16 -45 34 -52 40 -7 5 -15 10 -18 10 -8 0 -68 43 -77
55 -4 6 -8 7 -8 3 0 -4 -16 3 -36 17 -19 13 -57 34 -85 46 -27 13 -49 26 -49
31 0 4 -6 8 -12 8 -7 0 -54 18 -104 39 -50 22 -99 41 -110 43 -10 1 -21 5 -24
8 -4 5 -41 16 -115 36 -11 3 -31 7 -45 10 -14 2 -32 7 -40 11 -8 3 -22 7 -30
8 -8 1 -33 5 -55 10 -22 4 -50 9 -62 10 -25 3 -96 15 -128 21 -64 12 -591 16
-2540 17 -1193 1 -2186 1 -2207 -1z"/>
<path d="M46742 28503 c-4 -1 -124 -4 -267 -7 -143 -3 -276 -7 -295 -9 -133
-17 -268 -40 -349 -62 -30 -8 -58 -12 -63 -9 -4 3 -8 0 -8 -5 0 -6 -11 -11
-24 -11 -14 0 -28 -5 -31 -10 -4 -6 -10 -8 -15 -5 -5 3 -17 1 -27 -4 -10 -5
-56 -24 -103 -42 -76 -28 -144 -60 -250 -114 -19 -10 -68 -40 -108 -67 -40
-26 -75 -48 -77 -48 -3 0 -13 -8 -23 -17 -11 -10 -31 -27 -46 -37 -130 -93
-330 -306 -446 -476 -19 -28 -39 -56 -45 -63 -12 -15 -29 -44 -61 -106 -13
-24 -28 -49 -33 -55 -5 -6 -10 -14 -11 -18 -3 -20 -33 -84 -42 -89 -5 -3 -9
-10 -9 -15 1 -13 -20 -77 -29 -89 -14 -17 -83 -236 -94 -295 -2 -14 -7 -32
-10 -40 -3 -8 -7 -31 -10 -50 -8 -48 -15 -91 -21 -115 -2 -11 -7 -47 -10 -80
-4 -33 -9 -71 -13 -85 -9 -38 -12 -2756 -2 -2825 4 -33 11 -85 14 -115 11
-104 19 -145 51 -285 5 -20 17 -74 21 -87 1 -5 2 -9 4 -10 1 -2 3 -10 5 -18 3
-17 33 -106 42 -130 4 -8 7 -17 8 -20 5 -16 20 -51 40 -97 13 -28 21 -54 17
-57 -3 -3 0 -6 6 -6 7 0 11 -3 10 -7 -2 -8 48 -107 95 -188 36 -63 112 -178
136 -204 11 -13 21 -27 21 -30 0 -3 15 -22 33 -42 17 -21 55 -63 82 -94 64
-74 106 -117 182 -185 85 -76 102 -90 112 -90 5 0 11 -4 13 -8 3 -9 114 -92
123 -92 3 0 28 -16 55 -35 28 -19 50 -33 50 -29 0 3 12 -3 28 -14 96 -66 463
-202 590 -218 12 -1 48 -8 80 -15 31 -6 82 -13 112 -15 30 -2 55 -4 55 -4 0
-5 54 -11 133 -14 51 -2 96 -6 99 -10 3 -3 13 -2 22 2 9 5 27 7 41 6 50 -5
392 -6 396 -1 3 3 21 1 40 -3 19 -4 36 -5 38 -1 2 3 93 4 201 1 108 -3 199 -2
201 1 2 4 20 3 39 -1 19 -4 37 -5 39 -1 2 3 93 4 201 1 108 -3 199 -2 201 1 2
4 20 3 39 -1 19 -4 37 -5 39 -1 2 3 93 4 201 1 108 -3 199 -2 201 1 2 4 20 3
39 -1 19 -4 37 -5 39 -1 2 3 93 4 201 1 108 -3 199 -2 201 1 2 4 20 3 39 -1
19 -4 37 -5 39 -1 2 3 93 4 201 1 108 -3 199 -2 201 1 2 4 20 3 39 -1 19 -4
37 -5 39 -1 2 3 93 4 201 1 108 -3 199 -2 201 1 2 4 20 3 39 -1 19 -4 37 -5
39 -1 2 3 93 4 201 1 108 -3 199 -2 201 1 2 4 20 3 39 -1 19 -4 37 -5 39 -1 2
3 93 4 201 1 108 -3 199 -2 201 1 2 4 19 3 38 -1 19 -4 37 -6 39 -3 3 2 151 4
331 3 l326 -1 0 471 0 470 -32 1 c-18 0 -1171 1 -2563 3 -1391 2 -2548 6
-2570 10 -114 21 -284 73 -297 91 -4 5 -8 6 -8 2 0 -5 -15 0 -32 10 -66 36
-153 87 -158 93 -3 3 -16 13 -30 22 -81 51 -244 228 -326 353 -21 33 -45 69
-52 80 -7 11 -18 32 -25 48 -6 15 -15 27 -19 27 -4 0 -8 8 -8 18 0 10 -6 24
-12 31 -7 6 -13 15 -14 19 0 4 -5 18 -11 32 -53 123 -93 255 -108 355 -2 17
-7 42 -10 57 -3 14 -7 66 -10 115 -2 48 -5 89 -6 91 -5 7 -4 29 2 43 5 9 3 21
-2 26 -6 6 -7 13 -2 16 4 3 6 58 3 122 -3 64 -3 119 -1 121 5 4 2 84 -3 120
-2 10 1 27 5 36 6 10 5 19 -1 23 -6 4 -7 12 -3 18 7 11 6 34 -1 82 -2 11 0 27
5 36 5 9 4 20 -2 26 -6 6 -7 13 -2 16 4 3 6 49 3 102 -3 53 -3 98 0 100 3 2 3
74 0 160 -3 86 -3 158 0 160 3 2 3 56 0 120 -3 64 -3 118 0 120 3 2 3 56 0
120 -3 64 -3 118 0 120 3 2 3 56 0 120 -3 64 -3 118 0 120 3 2 3 38 0 80 -3
42 -4 78 -3 79 2 1 5 76 7 167 3 90 7 176 10 192 8 34 15 73 22 115 7 40 47
175 65 217 14 35 13 32 23 68 5 15 12 27 16 27 5 0 11 14 15 30 4 17 10 30 15
30 5 0 12 10 15 23 9 29 86 150 102 160 7 4 13 12 13 16 0 18 137 165 215 231
75 64 205 138 308 176 23 9 51 20 62 24 11 5 34 11 50 15 17 3 39 8 50 10 11
3 36 7 55 10 19 3 43 8 52 11 30 9 228 14 733 19 264 2 669 7 900 10 1975 23
2152 23 2226 -3 13 -4 34 -7 47 -6 12 0 22 -3 22 -9 0 -6 3 -8 6 -4 6 5 88
-15 129 -32 11 -5 51 -21 88 -36 70 -28 239 -129 245 -146 2 -5 8 -9 13 -9 5
0 24 -15 43 -32 19 -18 42 -40 52 -49 92 -79 207 -236 279 -379 41 -83 99
-239 110 -296 2 -16 7 -40 11 -54 8 -38 14 -80 17 -125 2 -22 6 -45 9 -50 6
-12 2 -364 -6 -415 -2 -19 -7 -55 -10 -80 -3 -25 -9 -58 -12 -75 -4 -16 -6
-37 -7 -45 0 -8 -4 -21 -10 -27 -5 -7 -7 -13 -4 -13 3 0 -3 -30 -14 -67 -11
-38 -22 -75 -24 -83 -2 -8 -9 -28 -16 -45 -6 -16 -13 -35 -14 -40 -4 -15 -78
-169 -84 -175 -3 -3 -15 -23 -26 -44 -11 -22 -24 -44 -30 -50 -5 -6 -23 -31
-40 -55 -66 -99 -275 -283 -369 -326 -17 -8 -38 -19 -46 -25 -15 -10 -106 -52
-125 -57 -5 -1 -42 -13 -82 -27 -39 -13 -87 -27 -105 -30 -18 -3 -49 -8 -68
-11 -19 -4 -47 -8 -62 -9 -15 -1 -30 -5 -34 -8 -3 -4 -571 -7 -1262 -8 -691 0
-1258 -3 -1261 -5 -4 -5 -3 -218 4 -645 2 -102 4 -209 4 -238 l1 -53 1293 4
c710 2 1308 6 1327 10 19 3 53 9 75 12 22 3 50 7 61 9 12 2 37 7 55 10 31 5
98 18 159 32 63 14 252 78 335 114 64 27 198 93 205 100 3 3 28 19 55 34 52
30 184 120 222 153 12 10 37 29 55 43 43 33 266 256 298 299 14 18 41 53 60
77 65 81 80 102 80 112 0 6 4 12 8 14 10 4 82 125 82 138 0 4 4 10 9 12 14 5
142 288 156 343 1 6 5 17 8 25 17 44 45 155 41 162 -3 4 -1 8 5 8 5 0 8 9 6
20 -2 11 -1 20 3 20 4 0 8 8 8 18 1 9 4 31 8 47 3 17 9 53 12 80 4 28 8 53 10
57 25 41 24 652 -1 788 -2 14 -7 45 -9 70 -7 59 -15 111 -40 240 -20 100 -107
383 -126 406 -5 6 -11 20 -13 31 -2 12 -8 28 -15 35 -6 8 -9 18 -5 22 4 4 3
10 -2 14 -6 4 -26 39 -45 77 -42 85 -121 219 -132 223 -4 2 -8 8 -8 13 0 9
-76 119 -90 129 -4 3 -11 12 -16 22 -20 36 -247 278 -261 278 -3 0 -13 8 -22
18 -29 31 -119 102 -130 102 -6 0 -11 5 -11 10 0 6 -6 10 -14 10 -8 0 -16 4
-18 9 -3 7 -164 111 -173 111 -1 0 -49 22 -106 49 -57 27 -124 55 -149 62 -25
7 -49 16 -55 21 -5 4 -19 8 -30 8 -12 0 -25 3 -29 7 -3 4 -12 8 -19 9 -21 5
-50 12 -112 27 -67 17 -196 39 -300 53 -93 12 -547 16 -1923 17 -842 1 -1535
1 -1540 0z"/>
<path d="M2167 28464 c-1 -1 -40 -5 -87 -8 -92 -7 -145 -12 -200 -22 -19 -4
-50 -7 -67 -7 -18 -1 -33 -4 -33 -7 0 -4 -6 -7 -12 -7 -26 -2 -92 -15 -114
-23 -12 -5 -25 -6 -28 -3 -3 3 -11 1 -18 -5 -7 -6 -16 -10 -21 -10 -30 -1
-282 -90 -317 -112 -8 -6 -24 -14 -35 -19 -62 -27 -121 -56 -125 -61 -3 -3
-27 -19 -55 -35 -72 -41 -178 -114 -216 -147 -10 -10 -21 -18 -23 -18 -19 0
-243 -224 -321 -321 -33 -41 -66 -80 -73 -87 -6 -7 -12 -17 -12 -21 0 -4 -8
-16 -18 -27 -41 -46 -210 -354 -218 -399 -1 -5 -10 -28 -19 -50 -22 -50 -76
-224 -79 -250 -1 -11 -5 -29 -9 -40 -10 -30 -46 -246 -54 -328 -11 -96 -10
-2740 0 -2843 4 -45 10 -94 13 -108 2 -14 6 -38 8 -53 5 -28 7 -40 27 -143 7
-30 12 -59 13 -65 1 -5 4 -14 8 -20 3 -5 8 -23 9 -40 2 -16 7 -33 12 -36 4 -3
10 -19 13 -35 4 -28 26 -97 44 -139 5 -11 17 -40 27 -65 18 -47 110 -232 141
-285 106 -186 301 -419 473 -565 35 -30 69 -59 75 -65 18 -16 49 -39 66 -50 8
-5 40 -26 69 -46 30 -19 70 -44 89 -55 19 -10 37 -22 38 -26 2 -5 10 -8 18 -8
8 0 14 -5 14 -10 0 -6 3 -9 8 -8 4 2 42 -14 85 -35 73 -35 245 -103 284 -112
10 -2 45 -12 78 -21 60 -16 82 -21 120 -29 11 -2 34 -7 50 -10 17 -4 44 -8 60
-10 17 -2 48 -7 70 -10 84 -12 117 -15 220 -20 59 -3 111 -7 115 -10 5 -3 11
-1 15 5 4 6 11 8 16 4 12 -7 188 -8 196 -1 3 3 11 3 18 1 22 -9 295 -9 295 -1
0 5 5 5 11 2 13 -8 148 -9 156 -2 3 3 11 3 18 1 22 -9 295 -9 295 -1 0 5 5 5
11 2 13 -8 148 -9 156 -2 3 3 11 3 18 1 22 -9 295 -9 295 -1 0 5 5 5 11 2 13
-8 148 -9 156 -2 3 3 11 3 18 1 22 -9 295 -9 295 -1 0 5 5 5 11 2 13 -8 148
-9 156 -2 3 3 11 3 18 1 22 -9 295 -9 295 -1 0 5 5 5 11 2 13 -8 148 -9 156
-2 3 3 11 3 18 1 22 -9 295 -9 295 -1 0 5 5 5 11 2 13 -8 148 -9 156 -2 3 3
11 3 18 1 22 -9 295 -9 295 -1 0 5 5 5 11 2 13 -8 148 -9 156 -2 3 3 11 3 18
1 22 -9 295 -9 295 -1 0 5 5 5 11 2 13 -8 148 -9 156 -2 3 3 11 3 18 1 22 -9
295 -9 295 -1 0 5 5 5 11 2 13 -8 148 -9 156 -2 3 3 11 3 18 1 25 -10 295 -9
295 0 0 6 3 6 9 0 15 -14 134 -5 128 10 -3 7 -1 19 3 27 5 8 4 19 -2 26 -6 7
-7 13 -2 13 5 0 7 61 4 136 -3 75 -2 138 3 141 4 2 2 13 -3 24 -6 10 -7 19 -3
19 4 0 6 43 3 96 -3 53 -2 98 3 101 4 2 2 13 -3 24 -6 10 -7 19 -2 19 4 0 5
25 2 56 -3 30 -3 57 2 60 4 3 3 14 -2 25 -6 11 -7 19 -1 19 5 0 6 14 1 35 -4
20 -4 38 1 41 5 3 6 11 2 17 -4 7 -6 21 -5 32 3 20 -3 20 -2535 20 -1396 0
-2564 3 -2595 7 -31 4 -67 10 -80 13 -13 2 -34 7 -48 10 -54 10 -97 22 -120
35 -14 7 -25 13 -25 12 0 -7 -65 20 -133 55 -132 69 -291 198 -378 308 -16 21
-35 44 -41 51 -7 7 -13 17 -13 23 0 6 -4 11 -10 11 -5 0 -10 5 -10 10 0 6 -8
20 -18 31 -11 10 -25 32 -32 47 -8 15 -20 34 -26 42 -20 24 -104 196 -104 212
0 8 -4 18 -9 23 -7 8 -39 94 -47 130 -9 35 -14 54 -23 83 -5 18 -10 35 -10 37
0 3 -3 20 -6 39 -11 57 -15 98 -26 266 -1 25 1 51 5 58 4 7 4 12 -1 12 -10 0
-8 93 1 109 4 6 4 11 -1 11 -10 0 -8 93 1 109 4 6 4 11 -1 11 -4 0 -6 94 -3
210 3 116 3 210 0 210 -7 0 -4 96 4 109 4 6 4 11 -1 11 -10 0 -8 93 1 109 4 6
4 11 -1 11 -9 0 -8 154 2 169 3 6 3 11 -2 11 -10 0 -8 93 1 109 4 6 4 11 -1
11 -10 0 -8 93 1 109 4 6 4 11 -1 11 -9 0 -8 354 2 370 3 5 3 10 -2 10 -10 0
-8 93 1 109 4 6 4 11 -1 11 -9 0 -8 113 1 129 4 6 3 11 -2 11 -6 0 -8 8 -6 18
2 9 6 67 8 127 3 61 8 133 11 160 13 117 63 296 118 425 8 19 15 39 15 44 0 5
4 12 9 15 4 3 25 39 47 80 21 41 47 84 57 95 11 11 19 25 19 32 0 7 3 14 8 16
4 2 26 28 49 59 57 77 175 196 253 256 116 90 351 197 454 208 17 2 31 4 31 5
0 3 43 9 91 13 28 2 55 6 60 8 5 3 1146 4 2536 4 l2526 -1 5 23 c2 13 1 25 -2
27 -3 3 -4 36 -1 75 3 40 2 80 -2 91 -4 11 -3 22 3 25 5 4 7 11 3 16 -10 16
-11 70 -2 75 4 3 3 14 -2 25 -8 14 -7 19 1 19 9 0 9 3 0 14 -8 10 -9 16 -1 21
7 4 7 12 0 26 -6 10 -7 19 -3 19 4 0 6 34 3 76 -3 42 -2 78 2 81 5 2 3 13 -2
24 -6 10 -7 19 -3 19 4 0 6 34 3 76 -3 42 -2 78 2 81 5 2 3 13 -2 24 -8 14 -7
19 1 19 9 0 9 3 0 14 -7 8 -8 17 -3 20 5 3 7 16 5 28 l-4 23 -2546 0 c-1399 0
-2545 -1 -2546 -1z"/>
<path d="M36351 28410 c-8 -5 -12 -71 -16 -280 -2 -69 -4 -169 -5 -223 -2 -80
1 -105 16 -135 11 -20 24 -40 29 -44 6 -4 6 -8 1 -8 -5 0 -4 -6 2 -12 5 -7 22
-34 36 -60 14 -27 38 -69 52 -95 14 -27 30 -52 34 -58 5 -5 9 -13 9 -18 0 -7
37 -75 105 -197 17 -30 38 -68 46 -85 8 -16 17 -32 20 -35 3 -3 22 -39 44 -80
21 -41 46 -88 55 -104 9 -16 40 -72 70 -125 29 -53 54 -102 54 -108 0 -7 3
-13 7 -13 4 0 17 -22 30 -50 13 -27 27 -50 32 -50 4 0 8 -8 8 -18 0 -10 4 -22
9 -28 5 -5 23 -36 41 -69 70 -128 82 -150 92 -162 6 -7 7 -13 2 -13 -5 0 -4
-4 1 -8 6 -4 24 -34 40 -67 17 -33 32 -62 35 -65 5 -5 35 -58 72 -130 13 -25
26 -46 31 -48 4 -2 7 -8 7 -13 0 -6 19 -45 42 -87 24 -42 43 -79 43 -82 0 -3
8 -16 16 -30 25 -39 139 -248 176 -322 19 -37 38 -70 44 -73 5 -4 7 -11 4 -16
-4 -5 -2 -9 3 -9 6 0 17 -17 26 -37 10 -21 29 -58 42 -83 14 -25 42 -74 61
-110 56 -103 94 -172 119 -217 13 -24 20 -43 16 -43 -4 0 -2 -4 4 -8 7 -4 33
-47 60 -97 26 -49 52 -93 58 -97 6 -4 7 -8 3 -8 -5 0 0 -15 11 -32 19 -33 62
-109 88 -158 8 -14 14 -30 14 -36 0 -7 7 -14 15 -18 8 -3 15 -14 15 -25 0 -11
3 -21 8 -23 4 -1 14 -16 23 -33 48 -93 75 -141 82 -146 5 -3 8 -9 8 -13 -2
-10 31 -70 43 -78 6 -4 8 -8 3 -8 -4 0 4 -18 18 -40 14 -22 25 -46 25 -55 0
-8 3 -15 8 -15 4 0 20 -26 37 -58 16 -31 34 -60 40 -64 5 -4 6 -8 1 -8 -5 0
-4 -6 1 -12 11 -14 42 -68 103 -183 21 -38 61 -112 89 -164 28 -52 51 -96 51
-98 0 -3 9 -18 21 -34 11 -16 17 -29 12 -29 -4 0 0 -7 10 -14 10 -8 18 -17 18
-20 -1 -6 42 -93 65 -131 7 -11 24 -42 38 -70 14 -27 42 -79 62 -115 42 -77
90 -165 140 -257 21 -38 40 -72 44 -78 4 -5 31 -55 60 -110 50 -96 76 -145
132 -245 30 -53 81 -148 133 -245 58 -109 114 -209 162 -295 11 -19 40 -73 64
-120 24 -47 47 -86 52 -88 4 -2 7 -10 7 -17 0 -16 27 -28 35 -15 3 5 12 7 19
4 23 -9 296 -10 296 -1 0 5 5 5 11 2 9 -6 135 -9 157 -4 4 1 11 1 16 0 10 -2
182 -3 288 -2 57 1 58 1 80 44 12 23 21 45 20 50 -1 4 2 7 8 7 5 0 10 6 10 14
0 8 7 22 16 30 8 9 13 16 9 16 -3 0 2 12 13 28 11 15 23 37 26 50 4 12 12 22
17 22 5 0 8 3 7 8 -1 4 7 25 19 47 11 22 21 44 21 49 0 5 5 12 10 15 6 3 26
38 46 76 20 39 40 77 45 85 34 56 101 184 101 192 0 5 5 14 11 21 18 21 119
211 119 224 0 7 4 13 9 13 5 0 14 12 20 28 6 15 29 61 52 102 23 41 56 102 72
135 17 33 34 62 38 65 4 3 14 21 22 40 9 19 33 67 55 105 37 67 122 226 166
310 12 22 23 42 26 45 3 3 14 23 26 45 65 126 90 171 99 177 5 4 7 8 3 8 -4 0
8 26 26 58 32 54 49 85 169 312 27 52 53 100 57 105 4 6 24 42 44 80 20 39 41
77 46 85 26 44 102 186 103 195 1 6 5 12 8 15 3 3 27 46 53 95 26 50 57 108
70 130 12 22 49 90 81 150 32 61 67 124 77 140 10 17 21 38 24 48 4 9 11 17
17 17 6 0 7 3 4 6 -3 4 4 25 17 48 13 22 40 73 61 111 21 39 49 90 62 115 14
25 47 87 75 139 69 131 72 135 83 143 6 4 6 8 1 8 -5 0 -4 6 1 13 6 6 27 44
48 82 21 39 50 93 65 120 27 50 93 174 134 250 11 22 23 42 26 45 3 3 18 32
34 65 17 33 38 72 48 86 9 14 15 29 11 33 -3 3 -2 6 3 6 6 0 23 27 39 60 16
33 32 60 37 60 4 0 7 3 6 8 -4 13 13 52 23 52 5 0 9 9 9 20 0 11 4 20 8 20 4
0 13 12 19 28 6 15 30 61 53 102 23 41 56 102 73 135 17 33 36 63 42 67 5 4 6
8 1 8 -5 0 -4 6 2 13 5 6 27 44 47 82 21 39 50 93 65 120 15 28 49 91 75 140
26 50 56 104 65 120 10 17 37 66 60 110 24 44 55 103 70 130 15 28 45 84 66
125 22 41 41 77 44 80 19 18 38 90 30 110 -6 17 -5 50 2 50 5 0 6 6 1 12 -4 7
-8 83 -10 168 -1 85 -2 155 -3 155 -1 0 -2 33 -3 74 l-2 74 -355 1 c-390 1
-367 5 -403 -63 -11 -20 -30 -55 -43 -78 -165 -295 -204 -365 -204 -369 0 -2
-13 -25 -28 -51 -16 -26 -46 -79 -67 -118 -21 -38 -54 -97 -72 -130 -19 -33
-39 -71 -46 -85 -6 -14 -14 -27 -17 -30 -3 -3 -18 -30 -34 -60 -16 -30 -38
-70 -48 -87 -10 -18 -26 -48 -36 -65 -19 -33 -107 -193 -156 -280 -14 -27 -38
-69 -53 -95 -15 -27 -36 -66 -47 -88 -12 -22 -24 -42 -27 -45 -3 -3 -12 -18
-21 -35 -43 -85 -73 -141 -78 -145 -3 -3 -18 -31 -34 -62 -16 -32 -32 -58 -37
-58 -5 0 -8 -3 -7 -7 1 -9 -13 -46 -21 -53 -6 -5 -67 -117 -86 -157 -5 -13
-13 -23 -17 -23 -5 0 -8 -9 -8 -20 0 -11 -4 -20 -9 -20 -5 0 -15 -16 -22 -35
-7 -19 -17 -35 -21 -35 -4 0 -8 -5 -8 -11 0 -6 -9 -24 -21 -40 -11 -16 -18
-29 -15 -29 3 0 -5 -15 -17 -33 -12 -18 -31 -52 -41 -75 -10 -23 -23 -42 -28
-42 -4 0 -8 -7 -8 -16 0 -8 -11 -32 -25 -52 -14 -20 -25 -42 -25 -49 0 -7 -4
-13 -10 -13 -5 0 -10 -6 -10 -14 0 -8 -6 -21 -12 -28 -7 -7 -23 -33 -35 -58
-12 -25 -43 -81 -68 -125 -25 -44 -53 -96 -63 -115 -9 -19 -19 -37 -22 -40 -3
-3 -18 -30 -34 -60 -48 -89 -51 -95 -57 -100 -3 -3 -14 -23 -25 -45 -26 -52
-86 -161 -124 -225 -16 -28 -30 -55 -30 -59 0 -5 -7 -14 -15 -21 -8 -7 -12
-16 -9 -21 3 -5 0 -9 -6 -9 -6 0 -9 -4 -6 -9 4 -5 3 -11 -1 -13 -5 -1 -21 -28
-37 -58 -16 -30 -32 -57 -35 -60 -3 -3 -14 -21 -23 -40 -10 -19 -35 -66 -57
-105 -22 -38 -48 -86 -57 -105 -10 -19 -48 -87 -84 -150 -36 -63 -74 -133 -85
-155 -11 -22 -23 -41 -27 -43 -5 -2 -8 -7 -8 -12 0 -4 -27 -55 -60 -113 -33
-59 -60 -111 -60 -117 0 -5 -4 -10 -8 -10 -5 0 -18 -21 -30 -47 -12 -27 -35
-70 -51 -98 -16 -27 -42 -72 -56 -99 -43 -79 -50 -91 -55 -96 -3 -3 -18 -30
-33 -60 -33 -64 -68 -128 -101 -185 -12 -22 -42 -76 -66 -120 -24 -44 -54 -97
-67 -117 -13 -21 -23 -42 -23 -47 0 -5 -3 -11 -7 -13 -5 -1 -24 -33 -42 -70
-19 -38 -37 -68 -40 -68 -7 0 -62 98 -58 104 1 2 -5 12 -13 22 -9 11 -26 39
-40 64 -40 77 -45 84 -57 98 -7 7 -13 22 -13 33 0 10 -4 19 -10 19 -5 0 -12
11 -16 25 -3 14 -9 25 -13 25 -3 0 -12 15 -20 33 -8 17 -17 34 -20 37 -4 3
-19 30 -35 60 -15 30 -38 73 -51 95 -37 67 -104 188 -149 268 -12 23 -40 74
-61 112 -21 39 -41 75 -45 80 -7 10 -58 102 -94 170 -12 22 -23 42 -26 45 -3
3 -13 21 -22 40 -10 19 -28 53 -41 75 -24 41 -80 142 -113 205 -11 19 -22 37
-26 38 -5 2 -8 9 -8 16 0 7 -11 30 -25 50 -13 20 -22 36 -19 36 3 0 -4 13 -15
29 -12 16 -21 31 -21 34 0 3 -31 60 -70 126 -38 67 -70 124 -70 126 0 2 -15
30 -34 62 -37 64 -61 109 -126 228 -24 44 -50 88 -58 98 -8 9 -12 17 -8 17 4
0 -1 12 -12 28 -11 15 -28 45 -39 67 -11 22 -44 83 -74 135 -30 52 -63 113
-74 135 -11 22 -22 42 -25 45 -3 3 -11 16 -18 29 -32 57 -51 90 -82 146 -79
145 -132 241 -141 255 -5 8 -13 25 -18 37 -6 11 -15 24 -20 28 -6 3 -11 15
-11 26 0 10 -4 19 -9 19 -5 0 -11 8 -15 18 -3 9 -24 49 -46 87 -22 39 -48 86
-57 105 -10 19 -20 37 -23 40 -7 7 -46 76 -76 135 -14 28 -41 77 -60 110 -19
33 -45 80 -57 105 -12 25 -26 50 -32 56 -5 6 -28 46 -50 90 -22 43 -43 81 -46
84 -6 5 -32 51 -164 295 -15 28 -30 55 -35 60 -4 6 -49 87 -100 180 -52 94
-104 188 -117 210 -12 22 -26 47 -30 55 -4 8 -28 52 -54 97 -26 45 -45 84 -41
87 3 3 1 6 -5 6 -5 0 -18 19 -29 43 -10 23 -24 48 -31 55 -7 7 -13 17 -13 22
0 5 -20 43 -45 84 -25 42 -45 80 -45 84 0 4 -9 18 -19 31 l-18 24 -348 1
c-191 1 -350 -1 -354 -4z"/>
<path d="M34998 28325 c-3 -6 -56 -10 -117 -9 l-111 1 0 -3383 c0 -2369 3
-3385 11 -3389 12 -8 168 -9 176 -2 3 3 11 3 18 1 22 -9 265 -9 265 -1 0 5 5
5 10 2 13 -8 179 -9 187 -2 3 3 11 3 18 1 7 -3 69 -6 138 -7 123 -2 126 -2
130 21 2 12 0 22 -5 22 -5 0 -6 5 -2 12 10 17 11 108 1 108 -5 0 -5 6 -1 12
11 18 12 49 3 81 -4 15 -5 27 -1 27 4 0 6 66 4 147 -3 146 -2 174 2 243 1 19
-1 47 -5 63 -4 15 -5 27 -1 27 4 0 6 66 4 147 -3 146 -2 174 2 243 1 19 -1 47
-5 63 -4 15 -5 27 -1 27 4 0 6 66 4 147 -3 146 -2 174 2 243 1 19 -1 47 -5 63
-4 15 -5 27 -1 27 4 0 6 66 4 147 -3 146 -2 174 2 243 1 19 -1 47 -5 63 -4 15
-5 27 -1 27 4 0 6 66 4 147 -3 146 -2 174 2 243 1 19 -1 47 -5 63 -4 15 -5 27
-1 27 4 0 6 66 4 147 -3 146 -2 174 2 243 1 19 -1 47 -5 63 -4 15 -5 27 -1 27
4 0 6 66 4 147 -3 146 -2 174 2 243 1 19 -1 47 -5 63 -4 15 -5 27 -1 27 4 0 6
66 4 147 -3 146 -2 174 2 243 1 19 -1 47 -5 63 -4 15 -5 27 -1 27 4 0 6 66 4
147 -3 146 -2 174 2 243 1 19 -1 47 -5 63 -4 15 -5 27 -1 27 4 0 6 66 4 147
-3 146 -2 174 2 243 1 19 -1 47 -5 63 -4 15 -5 27 -1 27 4 0 6 66 4 147 -3
146 -2 174 2 243 1 19 -1 47 -5 63 -4 15 -5 27 -1 27 4 0 6 66 4 147 -3 146
-2 174 2 243 1 19 -1 47 -5 63 -4 15 -5 27 -1 27 4 0 6 66 4 147 -3 146 -2
174 2 243 1 19 -1 47 -5 63 -4 15 -5 27 -1 27 9 0 7 233 -1 247 -4 6 -29 10
-57 9 -27 -1 -50 2 -50 7 0 6 -5 6 -12 1 -7 -5 -60 -8 -118 -7 -58 2 -112 3
-120 3 -8 0 -45 -1 -83 -2 -37 -2 -67 1 -67 5 0 4 -8 4 -17 -1 -21 -9 -130 -9
-139 1 -4 3 -15 2 -25 -3 -12 -7 -19 -6 -21 2 -3 7 -7 8 -10 3z"/>
</g>
</svg>
