<?xml version="1.0" standalone="no"?>
<!DOCTYPE svg PUBLIC "-//W3C//DTD SVG 20010904//EN"
 "http://www.w3.org/TR/2001/REC-SVG-20010904/DTD/svg10.dtd">
<svg version="1.0" xmlns="http://www.w3.org/2000/svg"
 width="700.000000pt" height="700.000000pt" viewBox="0 0 700.000000 700.000000"
 preserveAspectRatio="xMidYMid meet">
<metadata>
Created by potrace 1.14, written by Peter Selinger 2001-2017
</metadata>
<g transform="translate(0.000000,700.000000) scale(0.100000,-0.100000)"
fill="#000000" stroke="none">
<path d="M3278 6996 c-1 -2 -42 -6 -89 -10 -47 -4 -95 -8 -105 -10 -10 -2 -45
-7 -78 -11 -101 -12 -214 -35 -381 -76 -296 -75 -597 -198 -880 -362 -102 -59
-288 -180 -305 -197 -3 -3 -43 -34 -90 -70 -90 -69 -111 -86 -198 -165 -352
-320 -662 -745 -837 -1145 -25 -58 -50 -114 -55 -125 -45 -93 -150 -427 -176
-560 -2 -11 -10 -54 -19 -95 -29 -147 -35 -193 -52 -370 -15 -162 -8 -592 12
-711 2 -13 6 -46 9 -74 47 -408 239 -953 466 -1318 30 -48 60 -95 65 -105 25
-44 135 -194 213 -291 163 -201 342 -378 552 -546 92 -74 370 -265 386 -265 4
0 15 -6 23 -14 46 -40 413 -212 571 -268 83 -29 268 -87 293 -92 12 -2 60 -13
107 -24 109 -27 200 -44 299 -58 25 -3 57 -8 71 -10 163 -25 682 -25 842 1 13
2 46 7 73 10 71 10 87 13 115 18 14 3 43 8 65 12 22 4 76 16 120 27 44 10 87
21 96 23 223 51 591 200 823 334 49 28 91 51 93 51 10 0 268 180 353 247 151
118 324 281 450 422 36 41 70 79 76 85 29 30 185 242 240 326 120 184 241 412
315 597 66 163 147 422 175 558 16 75 54 300 60 350 4 33 9 76 11 95 8 69 10
517 2 595 -15 162 -21 220 -24 225 -2 3 -6 30 -10 60 -3 30 -10 71 -15 90 -5
19 -12 51 -15 70 -13 77 -66 272 -106 390 -349 1041 -1164 1856 -2204 2208
-167 56 -419 119 -555 137 -19 3 -46 7 -60 10 -13 2 -54 7 -90 11 -36 3 -76 8
-90 11 -27 5 -536 14 -542 9z m477 -590 c589 -56 1123 -272 1578 -637 129
-104 328 -304 435 -436 l83 -103 -42 -52 c-137 -174 -230 -383 -335 -754 -31
-111 -94 -366 -108 -434 -2 -14 -16 -77 -30 -140 -14 -63 -27 -126 -30 -140
-2 -14 -25 -123 -50 -243 -45 -214 -51 -241 -61 -293 -62 -296 -142 -605 -201
-774 -36 -105 -86 -214 -102 -224 -21 -13 -139 284 -193 484 -20 72 -87 339
-94 370 -2 8 -19 87 -39 175 -43 196 -126 581 -132 615 -3 14 -9 41 -14 60 -5
19 -11 46 -13 60 -3 14 -30 128 -61 253 -145 585 -268 873 -450 1052 -118 117
-240 167 -390 161 -137 -6 -247 -57 -356 -166 -116 -114 -213 -285 -303 -530
-39 -106 -118 -357 -132 -417 -2 -10 -27 -106 -54 -213 -48 -190 -98 -400
-107 -450 -3 -14 -7 -33 -10 -42 -3 -9 -7 -27 -10 -40 -44 -224 -171 -741
-233 -953 -44 -151 -137 -395 -151 -395 -9 0 -60 118 -92 210 -62 181 -123
409 -189 700 -17 74 -32 142 -34 150 -4 14 -16 68 -51 225 -8 39 -17 77 -19
85 -19 84 -35 152 -39 171 -27 141 -127 535 -181 714 -109 361 -208 573 -343
733 -38 46 -42 55 -31 70 225 290 514 551 809 731 253 155 533 271 835 347
100 25 316 59 445 70 36 3 66 7 67 8 5 4 366 -2 428 -8z m-160 -1760 c20 -50
41 -100 46 -111 27 -65 121 -395 144 -505 2 -8 10 -42 19 -75 13 -53 97 -430
110 -495 2 -14 9 -45 15 -70 5 -25 12 -56 15 -70 2 -14 23 -108 46 -210 22
-102 43 -196 46 -210 3 -14 7 -33 10 -42 3 -10 7 -28 9 -40 13 -67 111 -417
151 -536 116 -341 237 -540 399 -652 205 -141 462 -116 649 64 169 163 283
420 412 926 32 126 136 592 149 670 3 19 12 64 20 100 15 69 94 441 101 475 2
11 26 110 54 220 28 110 52 208 55 217 8 37 85 260 106 308 22 51 23 51 35 29
6 -13 33 -81 58 -152 67 -185 123 -417 151 -627 25 -192 25 -552 0 -727 -85
-580 -286 -1044 -648 -1492 -76 -94 -282 -302 -362 -366 -27 -22 -52 -43 -55
-46 -15 -17 -148 -114 -235 -171 -209 -137 -433 -244 -682 -327 -83 -28 -161
-52 -174 -55 -191 -41 -274 -57 -324 -62 -33 -4 -63 -8 -66 -10 -27 -15 -443
-23 -589 -11 -114 10 -335 42 -350 52 -3 2 -25 6 -48 10 -70 10 -305 82 -430
131 -298 118 -598 299 -842 509 -153 131 -376 382 -501 565 -280 406 -459 914
-496 1405 -24 319 4 646 81 960 23 93 61 210 102 315 18 47 38 98 44 114 7 20
14 26 21 19 24 -24 120 -291 169 -468 12 -44 26 -91 30 -105 12 -35 128 -520
136 -568 3 -15 11 -53 19 -85 8 -32 17 -73 20 -90 3 -18 12 -59 21 -92 8 -33
16 -69 18 -80 3 -11 10 -42 16 -70 6 -27 14 -61 16 -75 3 -14 10 -43 16 -65 5
-22 12 -51 15 -65 9 -55 96 -392 129 -500 69 -231 140 -410 215 -540 23 -40
116 -163 141 -186 47 -43 125 -93 178 -115 45 -19 74 -23 160 -23 58 0 123 5
145 12 101 30 239 141 312 251 39 59 129 231 151 291 55 146 159 474 177 560
2 8 22 89 44 180 23 91 44 178 47 194 3 16 7 32 9 35 2 4 6 26 10 51 4 25 8
47 10 50 3 5 54 224 70 296 13 66 86 375 94 402 5 18 10 36 11 40 3 30 59 235
107 395 44 151 112 334 139 374 7 12 14 27 14 33 0 6 10 24 22 41 l22 30 17
-22 c9 -12 33 -63 54 -113z"/>
</g>
</svg>
