<?xml version="1.0" standalone="no"?>
<!DOCTYPE svg PUBLIC "-//W3C//DTD SVG 20010904//EN"
 "http://www.w3.org/TR/2001/REC-SVG-20010904/DTD/svg10.dtd">
<svg version="1.0" xmlns="http://www.w3.org/2000/svg"
 width="1176.000000pt" height="1176.000000pt" viewBox="0 0 1176.000000 1176.000000"
 preserveAspectRatio="xMidYMid meet">
<metadata>
Created by potrace 1.14, written by Peter Selinger 2001-2017
</metadata>
<g transform="translate(0.000000,1176.000000) scale(0.100000,-0.100000)"
fill="#000000" stroke="none">
<path d="M3849 9316 c-2 -2 -24 -6 -49 -10 -122 -16 -255 -69 -354 -140 -46
-34 -186 -172 -186 -185 0 -6 -4 -11 -8 -11 -5 0 -19 -19 -32 -42 -13 -24 -26
-45 -30 -48 -7 -6 -61 -119 -66 -140 -2 -8 -12 -45 -23 -82 -11 -36 -17 -69
-13 -72 3 -3 1 -6 -4 -6 -5 0 -10 -15 -12 -32 -5 -74 -7 -1941 -1 -1950 3 -5
46 -9 95 -9 49 0 130 0 179 1 l90 0 1 923 c1 507 5 938 8 957 10 57 14 73 30
118 19 53 68 142 79 142 4 0 7 6 7 13 0 21 122 130 174 156 104 51 86 51 1054
51 l904 0 -20 -28 c-31 -43 -88 -176 -93 -217 -1 -5 -5 -21 -10 -34 -9 -23
-17 -68 -24 -146 -4 -33 -8 -1029 -5 -1045 0 -3 3 -34 5 -70 3 -36 7 -76 11
-90 3 -14 7 -37 9 -51 15 -96 95 -260 180 -364 70 -86 194 -195 223 -195 7 0
12 -3 12 -8 0 -7 10 -12 100 -50 55 -23 151 -47 230 -57 27 -4 1612 -8 1981
-5 l65 0 0 180 c0 115 -4 181 -11 183 -5 3 -36 4 -67 3 -32 -1 -58 2 -58 7 0
4 -5 5 -12 1 -17 -11 -108 -11 -108 -1 0 5 -5 5 -12 1 -14 -9 -109 -9 -132 -1
-9 4 -16 3 -16 -1 0 -9 -122 -8 -137 1 -6 4 -13 4 -17 0 -10 -10 -219 -10
-233 0 -8 6 -13 6 -13 0 0 -4 -26 -7 -57 -6 -32 2 -62 3 -68 3 -5 0 -36 -1
-67 -3 -32 -1 -58 2 -58 6 0 6 -5 6 -12 0 -16 -10 -158 -10 -176 0 -6 5 -12 5
-12 0 0 -9 -84 -8 -99 2 -6 3 -11 3 -11 -2 0 -9 -122 -9 -137 0 -6 4 -13 4
-17 0 -10 -10 -249 -10 -263 0 -8 6 -13 6 -13 0 0 -9 -19 -9 -160 1 -152 10
-266 77 -359 211 -34 48 -84 145 -75 145 4 0 2 6 -4 13 -9 11 -13 24 -28 107
-12 61 -11 974 1 982 7 5 6 8 -1 8 -10 0 -8 32 11 123 9 45 46 137 55 137 4 0
11 11 14 25 10 39 134 159 191 185 110 50 100 50 677 55 179 1 331 6 337 10 6
3 11 3 11 -2 0 -9 97 -10 106 -1 3 4 19 2 35 -2 16 -5 29 -6 29 -2 0 9 394 7
440 -2 76 -15 113 -28 168 -60 56 -34 152 -125 152 -145 0 -6 4 -11 9 -11 5 0
12 -8 15 -17 4 -10 15 -34 26 -53 44 -82 66 -264 47 -390 -9 -61 -55 -207 -70
-222 -7 -7 -19 -26 -27 -41 -23 -45 -123 -132 -186 -162 -104 -49 -144 -52
-639 -53 -253 -1 -472 -1 -488 -2 l-27 0 4 -177 c2 -98 4 -181 5 -185 1 -8
1000 -3 1056 5 227 35 413 146 573 342 46 56 127 227 147 310 34 144 38 314
10 480 -11 69 -17 94 -41 163 -106 318 -347 526 -659 570 -62 9 -1594 9 -1650
1 -129 -20 -259 -72 -360 -144 -59 -42 -185 -168 -185 -186 0 -5 -4 -9 -8 -9
-5 0 -9 78 -9 173 l1 172 -921 2 c-506 2 -922 1 -924 -1z"/>
<path d="M9110 9135 l0 -185 910 -1 c501 -1 913 -2 918 -3 4 -1 25 -6 47 -11
22 -5 42 -9 45 -10 87 -29 201 -122 260 -214 33 -52 83 -178 77 -195 -3 -8
-266 -11 -948 -12 -519 -1 -957 -4 -974 -7 -27 -4 -97 -18 -117 -23 -5 -1 -10
-3 -13 -4 -3 -1 -8 -3 -12 -4 -114 -25 -267 -119 -378 -231 -142 -141 -230
-319 -252 -510 -10 -86 -6 -279 7 -349 6 -34 12 -68 14 -76 14 -85 97 -273
159 -360 51 -72 170 -182 243 -225 75 -44 190 -95 198 -88 2 3 13 0 23 -5 16
-9 50 -16 138 -28 44 -6 1385 -7 1391 -1 3 2 5 85 5 182 0 135 -3 180 -13 186
-7 5 -14 5 -15 1 -4 -9 -125 -8 -140 1 -6 4 -13 4 -17 0 -10 -10 -249 -10
-263 0 -8 5 -13 6 -13 1 0 -11 -91 -11 -108 0 -7 4 -12 4 -12 -1 0 -4 -29 -8
-65 -8 -36 0 -65 4 -65 8 0 5 -5 5 -12 1 -17 -11 -108 -11 -108 -1 0 5 -5 5
-12 1 -14 -9 -109 -9 -132 -1 -9 4 -16 3 -16 -1 0 -9 -123 -8 -138 1 -6 4 -13
4 -15 0 -11 -17 -216 -3 -287 19 -135 41 -249 140 -326 283 -51 95 -72 259
-50 395 28 174 136 344 262 412 115 62 77 60 1116 62 838 1 947 -1 950 -14 2
-8 3 -356 2 -772 0 -533 3 -758 10 -759 50 -3 349 0 352 4 6 6 5 1873 -1 1934
-2 23 -9 61 -15 85 -7 23 -13 50 -15 58 -24 119 -114 275 -226 391 -106 109
-234 187 -367 223 -35 10 -73 20 -85 24 -12 3 -448 8 -969 9 l-948 4 0 -186z"/>
<path d="M807 9304 c-1 -1 -27 -4 -57 -7 -61 -7 -162 -32 -191 -47 -10 -6 -19
-8 -19 -6 0 6 -122 -54 -130 -63 -3 -3 -18 -13 -35 -21 -16 -8 -70 -56 -120
-105 -116 -117 -162 -196 -223 -385 -5 -16 -6 -18 -18 -70 -4 -19 -9 -296 -10
-615 -3 -480 -1 -593 12 -655 8 -41 16 -82 17 -90 1 -8 5 -19 8 -25 4 -5 9
-22 13 -38 21 -89 121 -249 215 -344 58 -59 142 -123 161 -123 4 0 10 -4 12
-8 10 -23 190 -85 298 -103 51 -8 1309 -14 2011 -9 l66 0 0 179 c0 126 -3 181
-11 184 -6 3 -30 4 -54 3 -23 -1 -42 2 -42 7 0 6 -5 6 -12 1 -7 -5 -74 -8
-148 -7 -74 2 -142 3 -150 3 -8 0 -33 -1 -55 -3 -22 -2 -48 1 -57 5 -10 5 -18
5 -18 1 0 -4 -28 -7 -62 -5 -35 1 -69 2 -75 2 -25 0 -103 0 -115 0 -7 0 -65 0
-128 0 -63 0 -122 0 -130 0 -8 0 -33 -1 -55 -3 -22 -2 -48 1 -57 5 -10 5 -18
5 -18 1 0 -4 -28 -7 -62 -5 -35 1 -69 2 -75 2 -25 0 -103 0 -115 0 -7 0 -65 0
-128 0 -63 0 -122 0 -130 0 -8 0 -33 -1 -55 -3 -22 -2 -48 1 -57 5 -10 5 -18
5 -18 1 0 -4 -26 -7 -57 -6 -32 0 -58 2 -58 3 0 0 -22 3 -50 5 -193 13 -369
186 -431 426 -15 55 -17 130 -18 529 -1 256 2 488 7 515 4 28 10 63 13 79 7
38 42 127 57 145 12 14 32 47 43 71 4 8 35 42 68 74 63 61 148 108 221 122 22
4 483 8 1025 8 542 1 990 5 996 9 7 4 11 66 10 184 l-1 178 -1003 0 c-551 1
-1004 0 -1005 -1z"/>
<path d="M0 4688 c1 -875 5 -1442 11 -1473 5 -27 12 -62 14 -78 13 -71 99
-277 117 -277 4 0 8 -5 8 -11 0 -34 217 -259 250 -259 6 0 10 -4 10 -8 0 -15
171 -93 234 -107 12 -2 32 -7 46 -10 14 -3 39 -8 55 -11 17 -4 133 -7 259 -8
209 -2 229 -1 235 15 8 23 6 337 -3 346 -3 4 -100 7 -214 8 -223 2 -272 9
-355 53 -101 53 -221 204 -259 325 -32 105 -33 140 -33 1530 l1 1387 -188 0
-188 0 0 -1422z"/>
<path d="M1429 5876 c-3 -34 -4 -333 -2 -342 3 -7 65 -10 186 -9 l182 0 0 180
0 180 -183 1 c-122 0 -182 -3 -183 -10z"/>
<path d="M5897 5174 c-1 -1 -28 -5 -61 -8 -97 -9 -186 -36 -281 -82 -93 -45
-128 -70 -199 -139 -76 -74 -176 -216 -176 -250 0 -8 -4 -15 -9 -15 -5 0 -11
-10 -14 -22 -3 -13 -15 -54 -27 -93 -11 -38 -24 -92 -28 -120 -9 -66 -9 -1187
1 -1245 19 -114 32 -158 78 -258 75 -163 217 -317 365 -394 49 -26 101 -49
116 -52 15 -2 32 -7 38 -11 5 -3 20 -8 32 -10 13 -3 48 -10 78 -17 40 -8 324
-12 1065 -13 556 -1 1015 0 1021 2 11 4 16 362 5 364 -3 0 -458 2 -1011 3
-1001 2 -1005 2 -1063 24 -168 61 -295 212 -343 407 -4 17 -9 37 -11 45 -8 26
-9 1003 -1 1045 3 22 9 56 13 75 4 19 24 71 45 116 68 141 188 238 330 268 76
16 1447 29 1535 15 181 -30 340 -187 390 -387 29 -112 21 -308 -15 -406 -20
-53 -54 -121 -65 -128 -5 -4 -7 -8 -3 -8 9 0 -11 -25 -57 -74 -67 -72 -177
-127 -283 -142 -26 -3 -261 -7 -522 -8 l-475 -1 0 -175 c-1 -96 1 -179 2 -185
6 -19 1061 -10 1092 9 3 2 23 7 45 10 21 4 43 9 50 13 6 4 19 9 28 10 51 8
212 99 275 156 132 118 185 193 259 362 33 75 57 220 57 345 1 240 -55 448
-165 613 -124 184 -318 314 -513 343 -11 2 -31 6 -45 10 -21 5 -1547 13 -1553
8z"/>
<path d="M4848 5142 l-127 -3 -59 -107 c-33 -59 -73 -133 -91 -164 -55 -102
-204 -372 -279 -508 -13 -25 -61 -112 -106 -194 -44 -82 -100 -183 -123 -225
-24 -42 -52 -94 -64 -116 -11 -22 -32 -60 -46 -85 -21 -39 -62 -114 -122 -225
-9 -16 -18 -32 -21 -35 -3 -3 -16 -27 -30 -55 -14 -27 -28 -54 -33 -60 -13
-18 -67 -119 -78 -147 -6 -16 -15 -28 -20 -28 -5 0 -9 -9 -9 -19 0 -11 -4 -21
-8 -23 -5 -1 -30 -43 -56 -93 -26 -49 -51 -93 -55 -98 -4 -4 -24 25 -45 65
-21 40 -45 86 -54 102 -55 96 -132 237 -132 240 0 2 -22 43 -50 91 -27 48 -50
88 -50 90 0 1 -30 56 -66 121 -37 66 -80 144 -96 174 -16 30 -33 62 -38 70
-28 45 -140 254 -140 261 0 5 -5 9 -12 9 -6 0 -9 3 -5 6 3 3 -5 24 -19 46 -14
21 -29 49 -35 61 -5 12 -20 40 -32 62 -13 22 -54 96 -92 165 -37 69 -76 139
-85 155 -53 94 -87 156 -110 200 -15 28 -44 79 -64 115 -20 36 -46 84 -57 108
l-21 42 -142 0 -141 0 0 -128 c0 -80 4 -134 11 -143 6 -8 40 -68 74 -134 35
-66 66 -124 70 -130 4 -5 31 -55 60 -110 29 -55 72 -134 94 -175 23 -41 48
-89 56 -105 8 -17 17 -32 20 -35 3 -3 15 -25 28 -50 56 -108 155 -296 162
-305 4 -5 27 -48 52 -95 60 -112 124 -232 161 -300 28 -52 64 -120 148 -275
20 -38 52 -99 71 -135 18 -36 35 -67 38 -70 3 -3 23 -39 45 -80 21 -41 47 -89
56 -107 22 -39 75 -137 125 -230 20 -38 40 -72 45 -78 6 -5 81 -10 175 -10
141 -1 167 2 172 15 3 8 8 17 11 20 3 3 21 34 40 70 19 36 52 99 74 140 22 41
49 93 60 115 11 22 22 42 26 45 3 3 23 39 44 80 20 41 58 113 83 160 25 47 76
141 112 210 36 69 68 127 71 130 3 3 39 70 80 150 41 80 77 147 80 150 3 3 24
41 46 85 22 44 69 134 105 200 36 66 76 143 90 170 14 28 27 52 30 55 3 3 12
19 21 35 8 17 45 86 81 155 37 69 77 145 90 170 13 25 25 47 28 50 3 3 21 37
40 75 19 39 40 73 45 77 6 4 7 8 2 8 -4 0 5 19 20 42 26 39 28 49 29 147 0
117 -2 138 -19 143 -7 2 -69 2 -139 0z"/>
<path d="M1429 5085 c-1 -11 -2 -608 -3 -1327 -1 -866 2 -1308 9 -1309 33 -4
348 -3 354 1 8 6 9 2649 1 2651 -3 1 -85 2 -183 3 -170 1 -177 0 -178 -19z"/>
</g>
</svg>
